<svg viewBox="0 0 21.0479 20.95" xmlns="http://www.w3.org/2000/svg" xmlns:xlink="http://www.w3.org/1999/xlink" width="21.047852" height="20.950001" fill="none" customFrame="#000000">
	<path id="Vector" d="M6.45 20.45C5.89772 20.45 5.45 20.0023 5.45 19.45C5.45 18.8977 5.89772 18.45 6.45 18.45C7.00228 18.45 7.45 18.8977 7.45 19.45C7.45 20.0023 7.00228 20.45 6.45 20.45ZM17.45 20.45C16.8977 20.45 16.45 20.0023 16.45 19.45C16.45 18.8977 16.8977 18.45 17.45 18.45C18.0023 18.45 18.45 18.8977 18.45 19.45C18.45 20.0023 18.0023 20.45 17.45 20.45ZM0.5 0.5L2.5 0.5L5.16 12.92C5.25758 13.3749 5.51067 13.7815 5.87571 14.0699C6.24075 14.3582 6.69491 14.5103 7.16 14.5L16.94 14.5C17.3952 14.4993 17.8365 14.3433 18.191 14.0578C18.5456 13.7724 18.7921 13.3745 18.89 12.93L20.54 5.5L3.57 5.5" fill-rule="evenodd" stroke="rgb(255,255,255)" stroke-linecap="round" stroke-linejoin="round" stroke-width="1.000000" />
</svg>
