<?xml version="1.0" standalone="no"?>
<!DOCTYPE svg PUBLIC "-//W3C//DTD SVG 20010904//EN"
 "http://www.w3.org/TR/2001/REC-SVG-20010904/DTD/svg10.dtd">
<svg version="1.0" xmlns="http://www.w3.org/2000/svg"
 width="256.000000pt" height="256.000000pt" viewBox="0 0 256.000000 256.000000"
 preserveAspectRatio="xMidYMid meet">

<g transform="translate(0.000000,256.000000) scale(0.100000,-0.100000)"
fill="#3596ED" stroke="none">
<path d="M1935 2546 c-16 -8 -52 -36 -79 -64 l-48 -50 -44 34 c-88 66 -164 56
-255 -35 -68 -69 -86 -117 -68 -183 9 -35 35 -67 137 -171 l126 -127 -547
-547 -547 -547 -127 126 c-104 102 -136 128 -170 137 -67 18 -115 0 -184 -68
-91 -91 -101 -168 -35 -253 l33 -43 -58 -61 c-96 -101 -94 -169 6 -273 l64
-66 -64 -66 c-35 -36 -67 -78 -70 -92 -26 -102 90 -218 192 -193 14 4 56 36
92 71 l66 64 66 -64 c103 -100 172 -102 273 -6 l61 58 43 -33 c85 -66 162 -56
253 35 68 69 86 117 68 184 -9 34 -35 66 -137 170 l-126 127 547 547 547 547
127 -126 c104 -102 136 -128 171 -137 66 -18 114 0 183 68 91 91 101 168 35
253 l-33 43 58 61 c96 101 94 170 -6 273 l-64 66 64 66 c35 36 67 78 71 92 25
102 -91 218 -193 193 -14 -4 -56 -36 -93 -71 l-66 -65 -55 56 c-79 82 -142
102 -214 70z m302 -309 c123 -122 223 -228 223 -235 0 -7 -23 -38 -52 -68
l-52 -55 -238 238 -239 238 55 53 c30 28 60 52 67 52 8 0 114 -100 236 -223z
m195 196 c10 -9 18 -21 18 -27 0 -7 -25 -36 -55 -66 l-55 -54 -27 27 -27 27
54 55 c30 30 59 55 64 55 5 0 18 -7 28 -17z m-404 -385 c200 -200 368 -371
373 -381 8 -14 0 -28 -42 -72 -31 -33 -60 -55 -73 -55 -29 0 -746 717 -746
746 0 20 98 124 117 124 4 0 171 -163 371 -362z m-198 -223 l45 -45 -548 -548
-547 -547 -47 48 -48 47 545 545 c300 300 547 545 550 545 3 0 26 -20 50 -45z
m-1173 -1167 c248 -248 363 -370 363 -384 0 -20 -98 -124 -117 -124 -10 0
-731 720 -744 743 -8 14 0 28 42 72 31 33 60 55 73 55 14 0 137 -116 383 -362z
m-31 -506 c-30 -28 -60 -52 -67 -52 -17 0 -459 441 -459 458 0 7 23 38 52 68
l52 55 238 -238 239 -238 -55 -53z m-376 93 l24 -26 -57 -57 c-47 -47 -60 -55
-74 -46 -43 27 -40 41 17 99 30 30 57 55 60 55 4 0 17 -11 30 -25z"/>
</g>
</svg>
