<?xml version="1.0" encoding="UTF-8"?>
<svg
    xmlns="http://www.w3.org/2000/svg"
    xmlns:xlink="http://www.w3.org/1999/xlink"
    width="16"
    height="68"
    viewBox="0 0 16 68"
    fill="none"
>
    <path
        d="M 14.2 66.8 C 14.5 66.8 14.8 66.7 14.8 66.4 L 15.8 62 C 15.9 61.7 15.7 61.5 15.5 61.4 C 15.2 61.4 14.9 61.5 14.9 61.8 L 14 65.7 L 10.1 64.8 C 9.8 64.7 9.5 64.9 9.5 65.2 C 9.4 65.4 9.6 65.7 9.8 65.8 L 14.2 66.8 Z M 9 -0.5 C 1.9 13.2 -0.8 23.7 0.2 34 C 1.3 44.2 6.1 54.1 13.9 66.6 L 14.8 66 C 7 53.6 2.3 43.8 1.2 33.9 C 0.2 23.9 2.8 13.6 9.9 0 L 9 -0.5 Z"
        fill="url(#paint0_linear_113_409)"
    />
    <defs>
        <linearGradient
            id="paint0_linear_113_409"
            x1="13.9897"
            y1="68.6441"
            x2="5.94103"
            y2="2.0527"
            gradientUnits="userSpaceOnUse"
        >
            <stop stop-color="white" />
            <stop
                offset="1"
                stop-color="white"
                stop-opacity="0"
            />
        </linearGradient>
    </defs>
</svg>