<svg
    xmlns="http://www.w3.org/2000/svg"
    width="7182.000000pt"
    height="253.000000pt"
    viewBox="0 0 7182.000000 253.000000"
    preserveAspectRatio="xMidYMid meet"
>
    <g
        transform="translate(0.000000,253.000000) scale(0.100000,-0.100000)"
        fill="#ffffff"
        stroke="none"
    >
        <path d="M69880 2477 c-14 -7 -36 -20 -50 -29 -14 -9 -36 -18 -50 -21 -14 -4
-60 -41 -102 -84 -61 -62 -84 -94 -110 -153 -33 -75 -33 -75 -36 -451 -2 -357
-3 -377 -22 -394 -16 -15 -41 -18 -167 -19 -148 -1 -148 -1 -148 -96 0 -95 0
-95 148 -96 126 -1 151 -4 167 -19 19 -17 20 -33 20 -342 0 -282 2 -328 17
-356 9 -18 22 -54 29 -80 13 -51 18 -57 106 -145 88 -88 94 -93 148 -107 28
-7 57 -19 65 -25 8 -6 47 -14 87 -17 65 -5 84 -2 168 27 52 18 111 43 130 56
19 13 39 24 44 24 4 0 24 14 43 30 18 17 42 30 52 30 10 0 35 14 56 30 21 17
43 30 50 30 7 0 29 14 50 30 21 17 46 30 55 30 9 0 34 14 55 30 21 17 43 30
50 30 7 0 29 14 50 30 21 17 46 30 56 30 10 0 34 14 52 30 19 17 39 30 43 30
5 0 29 14 54 30 25 16 52 30 61 30 9 0 29 10 44 23 35 27 106 69 161 96 23 11
45 24 48 30 4 6 28 21 54 35 26 13 71 36 100 50 28 15 52 31 52 35 0 5 14 14
31 21 46 20 113 79 151 135 48 69 92 230 85 305 -7 75 -45 189 -74 221 -12 14
-23 29 -23 33 0 9 -82 88 -128 123 -16 12 -40 25 -54 28 -15 4 -36 17 -49 31
-12 13 -38 29 -58 35 -20 6 -45 19 -56 29 -11 10 -38 27 -60 38 -87 44 -135
71 -159 90 -14 10 -39 25 -56 32 -16 7 -30 16 -30 20 0 5 -21 16 -47 26 -27
10 -61 28 -76 41 -16 13 -32 23 -37 23 -5 0 -21 10 -37 23 -15 13 -49 31 -75
41 -27 10 -48 21 -48 26 0 4 -14 13 -31 21 -18 7 -43 22 -58 34 -14 12 -37 26
-51 30 -14 4 -38 18 -55 30 -16 13 -40 26 -53 30 -12 3 -34 17 -50 29 -15 13
-43 28 -63 35 -20 6 -44 20 -54 31 -10 11 -47 34 -84 51 -61 30 -75 33 -186
36 -88 3 -127 0 -145 -10z" />
        <path d="M900 2289 c-36 -11 -90 -27 -120 -36 -60 -17 -196 -79 -205 -94 -4
-5 -23 -18 -43 -30 -20 -11 -53 -31 -72 -44 -52 -37 -179 -158 -180 -172 0 -6
-15 -29 -32 -52 -66 -82 -75 -97 -88 -136 -7 -22 -21 -51 -31 -65 -11 -14 -23
-47 -28 -75 -5 -27 -20 -72 -32 -99 -19 -44 -22 -72 -26 -225 -4 -159 -2 -183
17 -246 12 -38 28 -95 37 -125 17 -60 79 -196 94 -205 5 -4 18 -23 30 -43 11
-20 31 -53 44 -72 37 -52 158 -179 172 -180 6 0 29 -15 52 -33 82 -65 97 -74
136 -87 22 -7 51 -21 65 -31 14 -11 48 -23 75 -28 28 -5 73 -20 100 -32 44
-20 71 -23 225 -26 158 -4 182 -2 245 17 39 12 95 28 125 37 60 17 196 79 205
94 4 5 23 18 43 30 20 11 53 31 72 44 52 37 179 158 180 172 0 6 15 29 33 52
65 82 74 97 87 136 7 22 21 51 31 65 11 14 23 48 28 75 5 28 20 72 32 99 19
44 22 72 26 225 4 159 2 183 -17 246 -12 39 -28 95 -37 125 -17 60 -79 196
-94 205 -5 4 -18 23 -30 43 -11 20 -31 53 -44 72 -37 52 -158 179 -172 180 -6
0 -29 15 -52 33 -82 65 -97 74 -136 87 -22 7 -51 21 -65 31 -14 11 -47 23 -75
28 -27 5 -72 20 -100 32 -44 19 -70 22 -230 25 -161 4 -187 2 -245 -17z m404
-487 c18 -11 50 -25 72 -32 52 -17 175 -120 229 -191 24 -32 58 -90 77 -131
33 -72 33 -75 32 -218 0 -137 -2 -148 -26 -195 -15 -27 -30 -61 -33 -75 -10
-38 -112 -157 -181 -211 -33 -25 -94 -62 -135 -80 -73 -33 -76 -34 -219 -33
-143 0 -146 0 -210 32 -36 18 -69 32 -75 32 -21 1 -150 117 -196 176 -25 33
-62 94 -80 135 -34 73 -34 75 -33 219 0 135 2 148 26 195 14 28 29 61 33 75
12 39 123 167 186 215 60 45 172 100 224 108 17 3 85 4 153 2 99 -3 130 -8
156 -23z" />
        <path d="M3424 1317 c-3 -8 -4 -52 -2 -98 3 -84 3 -84 553 -87 303 -1 559 0
571 3 19 4 21 11 21 92 0 51 -5 91 -11 95 -6 4 -262 8 -569 8 -456 0 -559 -2
-563 -13z" />
        <path d="M7019 1320 c0 -5 0 -46 0 -90 0 -44 0 -84 0 -90 1 -12 2290 -14 2306
-2 6 4 10 45 10 92 0 47 -4 88 -10 92 -16 12 -2305 10 -2306 -2z" />
        <path d="M11817 1323 c-2 -5 -4 -48 -3 -98 1 -90 1 -90 1156 -90 1154 0 1154
0 1154 95 0 95 0 95 -1151 98 -634 1 -1154 -1 -1156 -5z" />
        <path d="M16596 1317 c-15 -11 -16 -17 -7 -35 6 -11 11 -35 11 -52 0 -17 -5
-41 -11 -52 -27 -50 -59 -48 1175 -46 1151 3 1151 3 1151 98 0 95 0 95 -1151
98 -946 2 -1153 0 -1168 -11z" />
        <path d="M21364 1317 c-3 -8 -4 -52 -2 -98 3 -84 3 -84 1154 -87 1234 -2 1202
-4 1175 46 -6 11 -11 35 -11 52 0 17 5 41 11 52 26 49 58 48 -1173 48 -948 0
-1150 -2 -1154 -13z" />
        <path d="M26158 1323 c-2 -5 -3 -48 -3 -98 1 -90 1 -90 1155 -90 1155 0 1155
0 1155 95 0 95 0 95 -1152 98 -633 1 -1153 -1 -1155 -5z" />
        <path d="M30955 1322 c-6 -4 -10 -45 -10 -92 0 -47 4 -88 10 -92 16 -12 2305
-10 2306 2 0 6 0 46 0 90 0 44 0 85 0 90 -1 12 -2290 14 -2306 2z" />
        <path d="M35714 1317 c-3 -8 -4 -52 -2 -98 3 -84 3 -84 1148 -87 630 -1 1154
0 1166 3 19 4 21 11 21 92 0 51 -5 91 -11 95 -6 4 -530 8 -1164 8 -951 0
-1154 -2 -1158 -13z" />
        <path d="M40499 1320 c0 -5 0 -46 0 -90 0 -44 0 -84 0 -90 1 -12 2290 -14
2306 -2 6 4 10 45 10 92 0 47 -4 88 -10 92 -16 12 -2305 10 -2306 -2z" />
        <path d="M45297 1323 c-2 -5 -4 -48 -3 -98 1 -90 1 -90 1156 -90 1154 0 1154
0 1154 95 0 95 0 95 -1151 98 -634 1 -1154 -1 -1156 -5z" />
        <path d="M50076 1317 c-15 -11 -16 -17 -7 -35 6 -11 11 -35 11 -52 0 -17 -5
-41 -11 -52 -27 -50 -59 -48 1175 -46 1151 3 1151 3 1151 98 0 95 0 95 -1151
98 -946 2 -1153 0 -1168 -11z" />
        <path d="M54844 1317 c-3 -8 -4 -52 -2 -98 3 -84 3 -84 1154 -87 1234 -2 1202
-4 1175 46 -6 11 -11 35 -11 52 0 17 5 41 11 52 26 49 58 48 -1173 48 -948 0
-1150 -2 -1154 -13z" />
        <path d="M59638 1323 c-2 -5 -3 -48 -3 -98 1 -90 1 -90 1155 -90 1155 0 1155
0 1155 95 0 95 0 95 -1152 98 -633 1 -1153 -1 -1155 -5z" />
        <path d="M64435 1322 c-6 -4 -10 -45 -10 -92 0 -47 4 -88 10 -92 16 -12 2305
-10 2306 2 0 6 0 46 0 90 0 44 0 85 0 90 -1 12 -2290 14 -2306 2z" />
    </g>
</svg>