<svg xmlns="http://www.w3.org/2000/svg">
    <symbol
        id="1"
        viewBox="0 0 200.000000 200.000000"
        preserveAspectRatio="xMidYMid meet"
    >
        <g
            transform="translate(0.000000,200.000000) scale(0.100000,-0.100000)"
            fill="currentColor"
            stroke="currentColor"
        >
            <path d="M720 1940 l0 -20 -60 0 -60 0 0 -20 0 -20 -40 0 -40 0 0 -20 0 -20
-40 0 -40 0 0 -20 0 -20 -20 0 -20 0 0 -20 0 -20 -20 0 -20 0 0 -20 0 -20 -20
0 -20 0 0 -20 0 -20 -20 0 -20 0 0 -20 0 -20 -20 0 -20 0 0 -20 0 -20 -20 0
-20 0 0 -20 0 -20 -20 0 -20 0 0 -40 0 -40 -20 0 -20 0 0 -40 0 -40 -20 0 -20
0 0 -60 0 -60 -20 0 -20 0 0 -280 0 -280 20 0 20 0 0 -60 0 -60 20 0 20 0 0
-40 0 -40 20 0 20 0 0 -40 0 -40 20 0 20 0 0 -20 0 -20 20 0 20 0 0 -20 0 -20
20 0 20 0 0 -20 0 -20 20 0 20 0 0 -20 0 -20 20 0 20 0 0 -20 0 -20 20 0 20 0
0 -20 0 -20 40 0 40 0 0 -20 0 -20 20 0 20 0 0 -20 0 -20 40 0 40 0 0 -20 0
-20 60 0 60 0 0 -20 0 -20 280 0 280 0 0 20 0 20 60 0 60 0 0 20 0 20 40 0 40
0 0 20 0 20 20 0 20 0 0 20 0 20 40 0 40 0 0 20 0 20 20 0 20 0 0 20 0 20 20
0 20 0 0 20 0 20 20 0 20 0 0 20 0 20 20 0 20 0 0 20 0 20 20 0 20 0 0 40 0
40 20 0 20 0 0 20 0 20 20 0 20 0 0 40 0 40 20 0 20 0 0 60 0 60 20 0 20 0 0
280 0 280 -20 0 -20 0 0 60 0 60 -20 0 -20 0 0 40 0 40 -20 0 -20 0 0 20 0 20
-20 0 -20 0 0 40 0 40 -20 0 -20 0 0 20 0 20 -20 0 -20 0 0 20 0 20 -20 0 -20
0 0 20 0 20 -20 0 -20 0 0 20 0 20 -20 0 -20 0 0 20 0 20 -40 0 -40 0 0 20 0
20 -20 0 -20 0 0 20 0 20 -40 0 -40 0 0 20 0 20 -60 0 -60 0 0 20 0 20 -280 0
-280 0 0 -20z m320 -160 l0 -20 100 0 100 0 0 -20 0 -20 60 0 60 0 0 -20 0
-20 20 0 20 0 0 -20 0 -20 -120 0 -120 0 0 -20 0 -20 -20 0 -20 0 0 -20 0 -20
-20 0 -20 0 0 -100 0 -100 -40 0 -40 0 0 -20 0 -20 -40 0 -40 0 0 -20 0 -20
-20 0 -20 0 0 -20 0 -20 -20 0 -20 0 0 -160 0 -160 20 0 20 0 0 -20 0 -20 20
0 20 0 0 -20 0 -20 200 0 200 0 0 -20 0 -20 20 0 20 0 0 -80 0 -80 20 0 20 0
0 -40 0 -40 20 0 20 0 0 -20 0 -20 20 0 20 0 0 -20 0 -20 20 0 20 0 0 -40 0
-40 -20 0 -20 0 0 -20 0 -20 -40 0 -40 0 0 -20 0 -20 -40 0 -40 0 0 -20 0 -20
-40 0 -40 0 0 -20 0 -20 -80 0 -80 0 0 220 0 220 -20 0 -20 0 0 20 0 20 -20 0
-20 0 0 20 0 20 -180 0 -180 0 0 20 0 20 -40 0 -40 0 0 20 0 20 -20 0 -20 0 0
20 0 20 -20 0 -20 0 0 20 0 20 -20 0 -20 0 0 20 0 20 -20 0 -20 0 0 20 0 20
-20 0 -20 0 0 20 0 20 -20 0 -20 0 0 20 0 20 -20 0 -20 0 0 20 0 20 -20 0 -20
0 0 60 0 60 20 0 20 0 0 60 0 60 20 0 20 0 0 20 0 20 20 0 20 0 0 40 0 40 20
0 20 0 0 20 0 20 20 0 20 0 0 20 0 20 20 0 20 0 0 20 0 20 20 0 20 0 0 20 0
20 40 0 40 0 0 20 0 20 40 0 40 0 0 20 0 20 40 0 40 0 0 20 0 20 100 0 100 0
0 20 0 20 40 0 40 0 0 -20z m560 -280 l0 -20 20 0 20 0 0 -40 0 -40 20 0 20 0
0 -40 0 -40 20 0 20 0 0 -40 0 -40 20 0 20 0 0 -100 0 -100 20 0 20 0 0 -40 0
-40 -20 0 -20 0 0 -100 0 -100 -20 0 -20 0 0 -40 0 -40 -20 0 -20 0 0 -40 0
-40 -20 0 -20 0 0 20 0 20 -20 0 -20 0 0 20 0 20 -20 0 -20 0 0 120 0 120 -20
0 -20 0 0 20 0 20 -20 0 -20 0 0 20 0 20 -200 0 -200 0 0 20 0 20 -20 0 -20 0
0 20 0 20 -20 0 -20 0 0 20 0 20 20 0 20 0 0 20 0 20 60 0 60 0 0 20 0 20 20
0 20 0 0 20 0 20 20 0 20 0 0 100 0 100 20 0 20 0 0 20 0 20 120 0 120 0 0 20
0 20 40 0 40 0 0 -20z m-1320 -680 l0 -20 20 0 20 0 0 -20 0 -20 20 0 20 0 0
-20 0 -20 20 0 20 0 0 -20 0 -20 20 0 20 0 0 -20 0 -20 20 0 20 0 0 -20 0 -20
180 0 180 0 0 -20 0 -20 20 0 20 0 0 -160 0 -160 -60 0 -60 0 0 20 0 20 -40 0
-40 0 0 20 0 20 -40 0 -40 0 0 20 0 20 -40 0 -40 0 0 20 0 20 -20 0 -20 0 0
20 0 20 -20 0 -20 0 0 20 0 20 -20 0 -20 0 0 20 0 20 -20 0 -20 0 0 40 0 40
-20 0 -20 0 0 40 0 40 -20 0 -20 0 0 40 0 40 -20 0 -20 0 0 40 0 40 20 0 20 0
0 -20z" />
        </g>
    </symbol>
    <symbol
        id="2"
        viewBox="0 0 200.000000 152.000000"
        preserveAspectRatio="xMidYMid meet"
    >
        <g
            transform="translate(0.000000,152.000000) scale(0.100000,-0.100000)"
            fill="currentColor"
            stroke="currentColor"
        >
            <path d="M240 1460 l0 -20 -20 0 -20 0 0 -20 0 -20 -20 0 -20 0 0 -20 0 -20
-20 0 -20 0 0 -20 0 -20 -20 0 -20 0 0 -20 0 -20 -20 0 -20 0 0 -520 0 -520
20 0 20 0 0 -20 0 -20 20 0 20 0 0 -20 0 -20 20 0 20 0 0 -20 0 -20 20 0 20 0
0 -20 0 -20 40 0 40 0 0 -20 0 -20 720 0 720 0 0 20 0 20 40 0 40 0 0 20 0 20
20 0 20 0 0 20 0 20 20 0 20 0 0 20 0 20 20 0 20 0 0 40 0 40 20 0 20 0 0 500
0 500 -20 0 -20 0 0 20 0 20 -20 0 -20 0 0 20 0 20 -20 0 -20 0 0 20 0 20 -20
0 -20 0 0 20 0 20 -20 0 -20 0 0 20 0 20 -760 0 -760 0 0 -20z m1360 -160 l0
-20 40 0 40 0 0 -20 0 -20 20 0 20 0 0 -20 0 -20 20 0 20 0 0 -40 0 -40 -760
0 -760 0 0 40 0 40 20 0 20 0 0 20 0 20 20 0 20 0 0 20 0 20 60 0 60 0 0 20 0
20 580 0 580 0 0 -20z m200 -640 l0 -260 -20 0 -20 0 0 -40 0 -40 -20 0 -20 0
0 -20 0 -20 -20 0 -20 0 0 -20 0 -20 -60 0 -60 0 0 -20 0 -20 -580 0 -580 0 0
20 0 20 -40 0 -40 0 0 20 0 20 -20 0 -20 0 0 20 0 20 -20 0 -20 0 0 60 0 60
-20 0 -20 0 0 240 0 240 800 0 800 0 0 -260z" />
            <path d="M440 620 l0 -20 -40 0 -40 0 0 -120 0 -120 120 0 120 0 0 120 0 120
-40 0 -40 0 0 20 0 20 -40 0 -40 0 0 -20z" />
        </g>
    </symbol>
    <symbol
        id="3"
        viewBox="0 0 196.000000 196.000000"
        preserveAspectRatio="xMidYMid meet"
    >
        <g
            transform="translate(0.000000,196.000000) scale(0.100000,-0.100000)"
            fill="currentColor"
            stroke="currentColor"
        >
            <path d="M560 1900 l0 -20 -40 0 -40 0 0 -20 0 -20 -40 0 -40 0 0 -20 0 -20
-20 0 -20 0 0 -40 0 -40 -20 0 -20 0 0 -40 0 -40 -20 0 -20 0 0 -60 0 -60 -20
0 -20 0 0 -60 0 -60 20 0 20 0 0 -80 0 -80 20 0 20 0 0 -40 0 -40 20 0 20 0 0
-20 0 -20 20 0 20 0 0 -20 0 -20 20 0 20 0 0 -20 0 -20 40 0 40 0 0 -20 0 -20
40 0 40 0 0 -20 0 -20 140 0 140 0 0 20 0 20 60 0 60 0 0 20 0 20 20 0 20 0 0
20 0 20 20 0 20 0 0 20 0 20 20 0 20 0 0 20 0 20 20 0 20 0 0 40 0 40 20 0 20
0 0 40 0 40 20 0 20 0 0 140 0 140 -20 0 -20 0 0 40 0 40 -20 0 -20 0 0 40 0
40 -20 0 -20 0 0 20 0 20 -20 0 -20 0 0 20 0 20 -40 0 -40 0 0 20 0 20 -20 0
-20 0 0 20 0 20 -200 0 -200 0 0 -20z m240 -160 l0 -20 40 0 40 0 0 -20 0 -20
40 0 40 0 0 -20 0 -20 20 0 20 0 0 -40 0 -40 20 0 20 0 0 -100 0 -100 -20 0
-20 0 0 -40 0 -40 -20 0 -20 0 0 -20 0 -20 -20 0 -20 0 0 -20 0 -20 -40 0 -40
0 0 -20 0 -20 -100 0 -100 0 0 20 0 20 -40 0 -40 0 0 20 0 20 -20 0 -20 0 0
20 0 20 -20 0 -20 0 0 60 0 60 -20 0 -20 0 0 60 0 60 20 0 20 0 0 40 0 40 20
0 20 0 0 20 0 20 20 0 20 0 0 20 0 20 20 0 20 0 0 20 0 20 40 0 40 0 0 20 0
20 60 0 60 0 0 -20z" />
            <path d="M1360 1300 l0 -20 -20 0 -20 0 0 -20 0 -20 -20 0 -20 0 0 -100 0
-100 20 0 20 0 0 -40 0 -40 20 0 20 0 0 -20 0 -20 20 0 20 0 0 -20 0 -20 20 0
20 0 0 -20 0 -20 20 0 20 0 0 -20 0 -20 20 0 20 0 0 -20 0 -20 20 0 20 0 0
-20 0 -20 40 0 40 0 0 20 0 20 40 0 40 0 0 20 0 20 20 0 20 0 0 20 0 20 20 0
20 0 0 20 0 20 20 0 20 0 0 20 0 20 20 0 20 0 0 40 0 40 20 0 20 0 0 120 0
120 -20 0 -20 0 0 20 0 20 -20 0 -20 0 0 20 0 20 -80 0 -80 0 0 -20 0 -20 -20
0 -20 0 0 -20 0 -20 -20 0 -20 0 0 20 0 20 -40 0 -40 0 0 20 0 20 -80 0 -80 0
0 -20z" />
            <path d="M560 820 l0 -20 -60 0 -60 0 0 -20 0 -20 -40 0 -40 0 0 -20 0 -20
-20 0 -20 0 0 -20 0 -20 -40 0 -40 0 0 -40 0 -40 -20 0 -20 0 0 -20 0 -20 -20
0 -20 0 0 -20 0 -20 -20 0 -20 0 0 -40 0 -40 -20 0 -20 0 0 -40 0 -40 -20 0
-20 0 0 -160 0 -160 80 0 80 0 0 80 0 80 20 0 20 0 0 60 0 60 20 0 20 0 0 40
0 40 20 0 20 0 0 20 0 20 20 0 20 0 0 20 0 20 20 0 20 0 0 20 0 20 20 0 20 0
0 20 0 20 20 0 20 0 0 20 0 20 60 0 60 0 0 20 0 20 160 0 160 0 0 -20 0 -20
40 0 40 0 0 -20 0 -20 20 0 20 0 0 -20 0 -20 40 0 40 0 0 -20 0 -20 20 0 20 0
0 -40 0 -40 20 0 20 0 0 -40 0 -40 20 0 20 0 0 -40 0 -40 20 0 20 0 0 -100 0
-100 80 0 80 0 0 20 0 20 20 0 20 0 0 80 0 80 -20 0 -20 0 0 80 0 80 -20 0
-20 0 0 40 0 40 -20 0 -20 0 0 20 0 20 -20 0 -20 0 0 40 0 40 -20 0 -20 0 0
20 0 20 -20 0 -20 0 0 20 0 20 -40 0 -40 0 0 20 0 20 -20 0 -20 0 0 20 0 20
-40 0 -40 0 0 20 0 20 -60 0 -60 0 0 20 0 20 -180 0 -180 0 0 -20z" />
        </g>
    </symbol>
    <symbol
        id="4"
        viewBox="0 0 184.000000 184.000000"
        preserveAspectRatio="xMidYMid meet"
    >
        <g
            transform="translate(0.000000,184.000000) scale(0.100000,-0.100000)"
            fill="currentColor"
            stroke="currentColor"
        >
            <path d="M640 1780 l0 -20 -40 0 -40 0 0 -20 0 -20 -40 0 -40 0 0 -20 0 -20
-40 0 -40 0 0 -20 0 -20 -20 0 -20 0 0 -20 0 -20 -20 0 -20 0 0 -20 0 -20 -20
0 -20 0 0 -20 0 -20 -20 0 -20 0 0 -20 0 -20 -20 0 -20 0 0 -20 0 -20 -20 0
-20 0 0 -40 0 -40 -20 0 -20 0 0 -40 0 -40 -20 0 -20 0 0 -40 0 -40 -20 0 -20
0 0 -280 0 -280 20 0 20 0 0 -40 0 -40 20 0 20 0 0 -40 0 -40 20 0 20 0 0 -40
0 -40 20 0 20 0 0 -20 0 -20 20 0 20 0 0 -20 0 -20 20 0 20 0 0 -20 0 -20 20
0 20 0 0 -20 0 -20 20 0 20 0 0 -20 0 -20 20 0 20 0 0 -20 0 -20 40 0 40 0 0
-20 0 -20 40 0 40 0 0 -20 0 -20 40 0 40 0 0 -20 0 -20 280 0 280 0 0 20 0 20
40 0 40 0 0 20 0 20 40 0 40 0 0 20 0 20 40 0 40 0 0 20 0 20 20 0 20 0 0 20
0 20 20 0 20 0 0 20 0 20 20 0 20 0 0 20 0 20 20 0 20 0 0 20 0 20 20 0 20 0
0 20 0 20 20 0 20 0 0 40 0 40 20 0 20 0 0 40 0 40 20 0 20 0 0 40 0 40 20 0
20 0 0 280 0 280 -20 0 -20 0 0 40 0 40 -20 0 -20 0 0 40 0 40 -20 0 -20 0 0
40 0 40 -20 0 -20 0 0 20 0 20 -20 0 -20 0 0 20 0 20 -20 0 -20 0 0 20 0 20
-20 0 -20 0 0 20 0 20 -20 0 -20 0 0 20 0 20 -20 0 -20 0 0 20 0 20 -40 0 -40
0 0 20 0 20 -40 0 -40 0 0 20 0 20 -40 0 -40 0 0 20 0 20 -280 0 -280 0 0 -20z
m440 -160 l0 -20 60 0 60 0 0 -20 0 -20 40 0 40 0 0 -20 0 -20 20 0 20 0 0
-20 0 -20 40 0 40 0 0 -20 0 -20 20 0 20 0 0 -20 0 -20 20 0 20 0 0 -40 0 -40
20 0 20 0 0 -20 0 -20 20 0 20 0 0 -40 0 -40 20 0 20 0 0 -80 0 -80 20 0 20 0
0 -140 0 -140 -20 0 -20 0 0 -60 0 -60 -20 0 -20 0 0 -40 0 -40 -20 0 -20 0 0
-20 0 -20 -20 0 -20 0 0 -40 0 -40 -20 0 -20 0 0 -20 0 -20 -20 0 -20 0 0 -20
0 -20 -40 0 -40 0 0 -20 0 -20 -20 0 -20 0 0 -20 0 -20 -40 0 -40 0 0 -20 0
-20 -80 0 -80 0 0 -20 0 -20 -140 0 -140 0 0 20 0 20 -60 0 -60 0 0 20 0 20
-40 0 -40 0 0 20 0 20 -20 0 -20 0 0 20 0 20 -40 0 -40 0 0 20 0 20 -20 0 -20
0 0 20 0 20 -20 0 -20 0 0 40 0 40 -20 0 -20 0 0 20 0 20 -20 0 -20 0 0 40 0
40 -20 0 -20 0 0 80 0 80 -20 0 -20 0 0 140 0 140 20 0 20 0 0 60 0 60 20 0
20 0 0 40 0 40 20 0 20 0 0 20 0 20 20 0 20 0 0 40 0 40 20 0 20 0 0 20 0 20
20 0 20 0 0 20 0 20 40 0 40 0 0 20 0 20 20 0 20 0 0 20 0 20 40 0 40 0 0 20
0 20 80 0 80 0 0 20 0 20 140 0 140 0 0 -20z" />
            <path d="M840 1160 l0 -200 -40 0 -40 0 0 -20 0 -20 -40 0 -40 0 0 -20 0 -20
-20 0 -20 0 0 -20 0 -20 -40 0 -40 0 0 -80 0 -80 40 0 40 0 0 -20 0 -20 20 0
20 0 0 20 0 20 20 0 20 0 0 20 0 20 40 0 40 0 0 20 0 20 40 0 40 0 0 20 0 20
20 0 20 0 0 20 0 20 40 0 40 0 0 260 0 260 -80 0 -80 0 0 -200z" />
        </g>
    </symbol>
    <symbol
        id="5"
        viewBox="0 0 164.000000 164.000000"
        preserveAspectRatio="xMidYMid meet"
    >
        <g
            transform="translate(0.000000,164.000000) scale(0.100000,-0.100000)"
            fill="currentColor"
            stroke="currentColor"
        >
            <path d="M160 1580 l0 -20 -20 0 -20 0 0 -20 0 -20 -20 0 -20 0 0 -20 0 -20
-20 0 -20 0 0 -240 0 -240 20 0 20 0 0 -20 0 -20 20 0 20 0 0 -20 0 -20 20 0
20 0 0 -20 0 -20 240 0 240 0 0 20 0 20 20 0 20 0 0 20 0 20 20 0 20 0 0 20 0
20 20 0 20 0 0 240 0 240 -20 0 -20 0 0 20 0 20 -20 0 -20 0 0 20 0 20 -20 0
-20 0 0 20 0 20 -240 0 -240 0 0 -20z m400 -160 l0 -20 20 0 20 0 0 -160 0
-160 -20 0 -20 0 0 -20 0 -20 -160 0 -160 0 0 20 0 20 -20 0 -20 0 0 160 0
160 20 0 20 0 0 20 0 20 160 0 160 0 0 -20z" />
            <path d="M1160 1540 l0 -20 -20 0 -20 0 0 -120 0 -120 -120 0 -120 0 0 -80 0
-80 120 0 120 0 0 -120 0 -120 80 0 80 0 0 120 0 120 120 0 120 0 0 20 0 20
20 0 20 0 0 60 0 60 -140 0 -140 0 0 140 0 140 -60 0 -60 0 0 -20z" />
            <path d="M160 740 l0 -20 -20 0 -20 0 0 -20 0 -20 -20 0 -20 0 0 -20 0 -20
-20 0 -20 0 0 -240 0 -240 20 0 20 0 0 -20 0 -20 20 0 20 0 0 -20 0 -20 20 0
20 0 0 -20 0 -20 240 0 240 0 0 20 0 20 20 0 20 0 0 20 0 20 20 0 20 0 0 20 0
20 20 0 20 0 0 240 0 240 -20 0 -20 0 0 20 0 20 -20 0 -20 0 0 20 0 20 -20 0
-20 0 0 20 0 20 -240 0 -240 0 0 -20z m400 -160 l0 -20 20 0 20 0 0 -160 0
-160 -20 0 -20 0 0 -20 0 -20 -160 0 -160 0 0 20 0 20 -20 0 -20 0 0 160 0
160 20 0 20 0 0 20 0 20 160 0 160 0 0 -20z" />
            <path d="M1000 740 l0 -20 -20 0 -20 0 0 -20 0 -20 -20 0 -20 0 0 -20 0 -20
-20 0 -20 0 0 -240 0 -240 20 0 20 0 0 -20 0 -20 20 0 20 0 0 -20 0 -20 20 0
20 0 0 -20 0 -20 240 0 240 0 0 20 0 20 20 0 20 0 0 20 0 20 20 0 20 0 0 20 0
20 20 0 20 0 0 240 0 240 -20 0 -20 0 0 20 0 20 -20 0 -20 0 0 20 0 20 -20 0
-20 0 0 20 0 20 -240 0 -240 0 0 -20z m400 -160 l0 -20 20 0 20 0 0 -160 0
-160 -20 0 -20 0 0 -20 0 -20 -160 0 -160 0 0 20 0 20 -20 0 -20 0 0 160 0
160 20 0 20 0 0 20 0 20 160 0 160 0 0 -20z" />
        </g>
    </symbol>
    <symbol
        id="6"
        viewBox="0 0 104.000000 168.000000"
        preserveAspectRatio="xMidYMid meet"
    >
        <g
            transform="translate(0.000000,168.000000) scale(0.100000,-0.100000)"
            fill="currentColor"
            stroke="currentColor"
        >
            <path d="M440 1580 l0 -60 -100 0 -100 0 0 -20 0 -20 -40 0 -40 0 0 -20 0 -20
-20 0 -20 0 0 -40 0 -40 -20 0 -20 0 0 -20 0 -20 -20 0 -20 0 0 -140 0 -140
20 0 20 0 0 -40 0 -40 20 0 20 0 0 -20 0 -20 20 0 20 0 0 -20 0 -20 20 0 20 0
0 -20 0 -20 60 0 60 0 0 -20 0 -20 60 0 60 0 0 -240 0 -240 -60 0 -60 0 0 20
0 20 -20 0 -20 0 0 20 0 20 -20 0 -20 0 0 20 0 20 -20 0 -20 0 0 60 0 60 -20
0 -20 0 0 20 0 20 -40 0 -40 0 0 -20 0 -20 -20 0 -20 0 0 -100 0 -100 20 0 20
0 0 -40 0 -40 20 0 20 0 0 -20 0 -20 40 0 40 0 0 -20 0 -20 20 0 20 0 0 -20 0
-20 100 0 100 0 0 -60 0 -60 80 0 80 0 0 60 0 60 100 0 100 0 0 20 0 20 40 0
40 0 0 20 0 20 20 0 20 0 0 40 0 40 20 0 20 0 0 20 0 20 20 0 20 0 0 140 0
140 -20 0 -20 0 0 40 0 40 -20 0 -20 0 0 20 0 20 -20 0 -20 0 0 20 0 20 -20 0
-20 0 0 20 0 20 -60 0 -60 0 0 20 0 20 -60 0 -60 0 0 240 0 240 60 0 60 0 0
-20 0 -20 20 0 20 0 0 -20 0 -20 20 0 20 0 0 -20 0 -20 20 0 20 0 0 -60 0 -60
20 0 20 0 0 -20 0 -20 40 0 40 0 0 20 0 20 20 0 20 0 0 100 0 100 -20 0 -20 0
0 40 0 40 -20 0 -20 0 0 20 0 20 -40 0 -40 0 0 20 0 20 -20 0 -20 0 0 20 0 20
-100 0 -100 0 0 60 0 60 -80 0 -80 0 0 -60z m0 -420 l0 -200 -40 0 -40 0 0 20
0 20 -40 0 -40 0 0 20 0 20 -20 0 -20 0 0 40 0 40 -20 0 -20 0 0 60 0 60 20 0
20 0 0 20 0 20 20 0 20 0 0 20 0 20 20 0 20 0 0 20 0 20 60 0 60 0 0 -200z
m240 -460 l0 -20 40 0 40 0 0 -20 0 -20 20 0 20 0 0 -40 0 -40 20 0 20 0 0
-60 0 -60 -20 0 -20 0 0 -20 0 -20 -20 0 -20 0 0 -20 0 -20 -20 0 -20 0 0 -20
0 -20 -60 0 -60 0 0 200 0 200 40 0 40 0 0 -20z" />
        </g>
    </symbol>
    <symbol
        id="7"
        viewBox="0 0 168.000000 168.000000"
        preserveAspectRatio="xMidYMid meet"
    >
        <g
            transform="translate(0.000000,168.000000) scale(0.100000,-0.100000)"
            fill="currentColor"
            stroke="currentColor"
        >
            <path d="M720 1620 l0 -20 -20 0 -20 0 0 -20 0 -20 -20 0 -20 0 0 -160 0 -160
-40 0 -40 0 0 20 0 20 -20 0 -20 0 0 20 0 20 -20 0 -20 0 0 60 0 60 -20 0 -20
0 0 40 0 40 -60 0 -60 0 0 -20 0 -20 -20 0 -20 0 0 -80 0 -80 20 0 20 0 0 -40
0 -40 20 0 20 0 0 -20 0 -20 -80 0 -80 0 0 -20 0 -20 -40 0 -40 0 0 -20 0 -20
-20 0 -20 0 0 -40 0 -40 -20 0 -20 0 0 -160 0 -160 40 0 40 0 0 -20 0 -20 20
0 20 0 0 -220 0 -220 20 0 20 0 0 -40 0 -40 20 0 20 0 0 -20 0 -20 20 0 20 0
0 -20 0 -20 40 0 40 0 0 -20 0 -20 480 0 480 0 0 20 0 20 40 0 40 0 0 20 0 20
20 0 20 0 0 20 0 20 20 0 20 0 0 40 0 40 20 0 20 0 0 220 0 220 20 0 20 0 0
20 0 20 40 0 40 0 0 160 0 160 -20 0 -20 0 0 40 0 40 -20 0 -20 0 0 20 0 20
-60 0 -60 0 0 20 0 20 -60 0 -60 0 0 20 0 20 20 0 20 0 0 40 0 40 20 0 20 0 0
80 0 80 -20 0 -20 0 0 20 0 20 -60 0 -60 0 0 -40 0 -40 -20 0 -20 0 0 -60 0
-60 -20 0 -20 0 0 -20 0 -20 -20 0 -20 0 0 -20 0 -20 -60 0 -60 0 0 20 0 20
20 0 20 0 0 140 0 140 -20 0 -20 0 0 20 0 20 -20 0 -20 0 0 20 0 20 -120 0
-120 0 0 -20z m160 -220 l0 -80 -40 0 -40 0 0 80 0 80 40 0 40 0 0 -80z m-200
-180 l0 -20 -20 0 -20 0 0 20 0 20 20 0 20 0 0 -20z m80 -280 l0 -100 -280 0
-280 0 0 60 0 60 20 0 20 0 0 20 0 20 40 0 40 0 0 20 0 20 220 0 220 0 0 -100z
m600 80 l0 -20 40 0 40 0 0 -20 0 -20 20 0 20 0 0 -60 0 -60 -280 0 -280 0 0
100 0 100 220 0 220 0 0 -20z m-600 -580 l0 -240 -180 0 -180 0 0 20 0 20 -20
0 -20 0 0 40 0 40 -20 0 -20 0 0 180 0 180 220 0 220 0 0 -240z m600 60 l0
-180 -20 0 -20 0 0 -40 0 -40 -40 0 -40 0 0 -20 0 -20 -160 0 -160 0 0 240 0
240 220 0 220 0 0 -180z" />
        </g>
    </symbol>
    <symbol
        id="8"
        viewBox="0 0 120.000000 168.000000"
        preserveAspectRatio="xMidYMid meet"
    >
        <g
            transform="translate(0.000000,168.000000) scale(0.100000,-0.100000)"
            fill="currentColor"
            stroke="currentColor"
        >
            <path d="M400 1620 l0 -20 -40 0 -40 0 0 -20 0 -20 -40 0 -40 0 0 -20 0 -20
-20 0 -20 0 0 -20 0 -20 -20 0 -20 0 0 -40 0 -40 -20 0 -20 0 0 -20 0 -20 -20
0 -20 0 0 -60 0 -60 -20 0 -20 0 0 -120 0 -120 20 0 20 0 0 -60 0 -60 20 0 20
0 0 -40 0 -40 20 0 20 0 0 -20 0 -20 20 0 20 0 0 -340 0 -340 20 0 20 0 0 -20
0 -20 120 0 120 0 0 20 0 20 20 0 20 0 0 20 0 20 80 0 80 0 0 -20 0 -20 20 0
20 0 0 -20 0 -20 120 0 120 0 0 20 0 20 20 0 20 0 0 340 0 340 20 0 20 0 0 20
0 20 20 0 20 0 0 40 0 40 20 0 20 0 0 60 0 60 20 0 20 0 0 120 0 120 -20 0
-20 0 0 60 0 60 -20 0 -20 0 0 40 0 40 -20 0 -20 0 0 20 0 20 -20 0 -20 0 0
20 0 20 -20 0 -20 0 0 20 0 20 -40 0 -40 0 0 20 0 20 -40 0 -40 0 0 20 0 20
-200 0 -200 0 0 -20z m360 -160 l0 -20 20 0 20 0 0 -20 0 -20 40 0 40 0 0 -40
0 -40 20 0 20 0 0 -20 0 -20 20 0 20 0 0 -180 0 -180 -20 0 -20 0 0 -20 0 -20
-20 0 -20 0 0 -20 0 -20 -20 0 -20 0 0 -20 0 -20 -20 0 -20 0 0 -20 0 -20 -60
0 -60 0 0 -20 0 -20 -100 0 -100 0 0 20 0 20 -40 0 -40 0 0 20 0 20 -20 0 -20
0 0 20 0 20 -20 0 -20 0 0 20 0 20 -20 0 -20 0 0 40 0 40 -20 0 -20 0 0 60 0
60 -20 0 -20 0 0 20 0 20 20 0 20 0 0 80 0 80 20 0 20 0 0 20 0 20 20 0 20 0
0 20 0 20 20 0 20 0 0 20 0 20 20 0 20 0 0 20 0 20 40 0 40 0 0 20 0 20 140 0
140 0 0 -20z m-320 -880 l0 -20 160 0 160 0 0 20 0 20 40 0 40 0 0 -200 0
-200 -20 0 -20 0 0 20 0 20 -20 0 -20 0 0 20 0 20 -40 0 -40 0 0 20 0 20 -80
0 -80 0 0 -20 0 -20 -40 0 -40 0 0 -20 0 -20 -20 0 -20 0 0 -20 0 -20 -20 0
-20 0 0 200 0 200 40 0 40 0 0 -20z" />
        </g>
    </symbol>
</svg>