<svg xmlns="http://www.w3.org/2000/svg">
    <symbol
        id="1"
        viewBox="0 0 277.000000 350.000000"
        preserveAspectRatio="xMidYMid meet"
    >
        <g
            transform="translate(0.000000,350.000000) scale(0.100000,-0.100000)"
            fill="currentColor"
            stroke="currentColor"
        >
            <path d="M1940 3446 c-19 -7 -52 -21 -72 -30 -21 -9 -44 -16 -53 -16 -48 0
    -238 -146 -291 -224 -68 -101 -99 -167 -118 -256 -26 -118 -32 -210 -15 -221
    35 -22 157 6 249 57 14 7 48 25 75 38 84 40 214 184 250 276 6 14 18 36 27 50
    9 14 22 54 28 90 6 36 18 98 27 138 15 63 15 74 2 87 -21 22 -70 27 -109 11z" />
            <path d="M1868 2536 c-37 -13 -97 -29 -134 -36 -37 -6 -86 -22 -108 -34 -23
    -13 -60 -27 -84 -30 -24 -4 -54 -14 -68 -22 -16 -11 -37 -14 -66 -11 -49 6
    -172 48 -220 76 -18 11 -58 22 -88 26 -30 4 -77 16 -103 26 -73 29 -214 26
    -313 -6 -42 -14 -86 -25 -98 -25 -11 0 -37 -9 -56 -19 -19 -11 -53 -28 -75
    -39 -22 -11 -49 -29 -59 -41 -11 -11 -24 -21 -30 -21 -14 0 -146 -133 -146
    -148 0 -6 -12 -24 -26 -41 -14 -17 -30 -48 -36 -68 -5 -21 -18 -47 -28 -58
    -11 -12 -23 -51 -30 -100 -7 -44 -21 -109 -32 -145 -28 -89 -37 -437 -15 -550
    8 -41 22 -113 31 -160 23 -120 31 -148 55 -208 11 -28 31 -76 42 -105 12 -28
    28 -70 36 -92 8 -22 23 -49 33 -60 10 -11 24 -39 31 -62 6 -23 23 -52 35 -64
    13 -13 24 -26 24 -31 0 -14 83 -148 91 -148 5 0 17 -17 28 -38 33 -66 161
    -176 258 -223 83 -41 87 -41 172 -37 64 3 98 10 129 26 24 12 64 27 90 33 26
    5 54 17 63 25 21 19 135 61 214 80 62 14 153 6 180 -16 7 -6 32 -16 56 -23 24
    -8 62 -26 83 -40 21 -15 45 -27 51 -27 7 0 42 -13 77 -30 54 -26 75 -30 143
    -30 69 0 88 4 140 30 33 16 65 30 71 30 14 0 175 134 187 157 6 10 34 45 63
    78 50 57 67 85 115 185 12 25 29 56 39 70 9 14 23 43 30 65 7 22 21 49 30 60
    10 11 25 46 33 78 9 33 23 67 31 76 26 29 20 59 -16 77 -18 9 -40 22 -48 29
    -8 7 -26 16 -40 20 -41 13 -219 203 -230 247 -6 20 -18 45 -27 54 -25 25 -53
    146 -59 259 -7 122 23 304 55 339 11 11 27 40 36 64 10 23 20 42 24 42 4 0 15
    15 26 33 22 38 80 94 115 112 14 7 38 27 54 44 25 26 28 35 20 54 -12 30 -168
    173 -215 197 -19 10 -41 25 -48 33 -6 9 -35 21 -64 27 -29 7 -70 22 -92 33
    -32 17 -62 22 -155 24 -101 3 -123 1 -182 -21z" />
        </g>
    </symbol>

    <symbol
        id="2"
        viewBox="0 0 440.000000 478.000000"
        preserveAspectRatio="xMidYMid meet"
    >
        <g
            transform="translate(0.000000,478.000000) scale(0.100000,-0.100000)"
            fill="currentColor"
            stroke="currentColor"
        >
            <path d="M1312 4728 c-7 -7 -12 -18 -12 -25 0 -17 123 -171 156 -196 34 -26
    31 -62 -7 -98 -17 -16 -37 -29 -44 -29 -11 0 -51 -27 -118 -82 -16 -13 -42
    -32 -57 -43 -32 -23 -155 -165 -185 -215 -11 -18 -29 -49 -40 -69 -12 -20 -28
    -47 -37 -61 -9 -14 -22 -45 -28 -70 -7 -25 -19 -53 -27 -62 -9 -10 -24 -61
    -33 -115 -10 -54 -24 -111 -30 -128 -23 -59 -29 -128 -14 -152 14 -23 14 -23
    1355 -23 905 0 1347 3 1360 10 23 13 26 74 5 124 -7 18 -19 66 -26 107 -16
    101 -29 151 -45 169 -7 8 -18 35 -25 60 -7 25 -18 52 -25 60 -8 8 -23 35 -34
    60 -21 45 -49 89 -93 144 -41 53 -220 226 -232 226 -7 0 -21 10 -32 21 -10 12
    -38 30 -61 41 -68 30 -83 82 -38 128 67 66 156 181 153 196 -2 9 -11 22 -20
    27 -13 9 -24 3 -57 -31 -23 -23 -41 -46 -41 -51 0 -5 -13 -19 -30 -31 -16 -12
    -30 -28 -30 -35 0 -8 -10 -21 -21 -29 -12 -8 -30 -29 -41 -46 -18 -31 -22 -32
    -66 -27 -53 6 -136 25 -232 53 -58 17 -100 19 -370 19 -260 -1 -313 -4 -360
    -18 -30 -10 -102 -27 -159 -39 -103 -23 -103 -23 -122 2 -29 39 -61 78 -99
    120 -19 21 -40 44 -47 52 -7 7 -18 18 -25 25 -7 7 -19 19 -26 28 -15 18 -24
    19 -40 3z m358 -601 c14 -7 40 -34 58 -61 42 -63 42 -103 1 -167 -28 -42 -38
    -49 -79 -58 -61 -13 -146 0 -165 25 -36 47 -57 105 -51 138 7 37 65 116 93
    127 30 12 116 10 143 -4z m1202 2 c13 -6 39 -32 58 -57 49 -65 49 -120 1 -180
    -19 -23 -46 -46 -60 -50 -37 -10 -136 -5 -160 8 -27 14 -71 100 -71 138 0 33
    47 112 81 136 27 19 116 22 151 5z" />
            <path d="M280 3361 c-68 -8 -162 -68 -182 -115 -7 -17 -23 -46 -35 -65 -24
    -35 -24 -35 -21 -700 3 -666 3 -666 42 -728 21 -35 53 -71 70 -82 17 -11 41
    -27 52 -36 29 -22 147 -30 213 -16 34 7 67 23 88 41 18 17 38 30 42 30 5 0 26
    30 48 68 38 67 38 67 38 732 0 657 0 665 -21 695 -11 17 -26 45 -34 63 -8 20
    -27 41 -49 53 -20 10 -47 28 -61 38 -29 22 -108 31 -190 22z" />
            <path d="M4000 3360 c-43 -5 -68 -16 -112 -50 -32 -23 -60 -51 -63 -60 -3 -10
    -18 -36 -33 -57 -27 -38 -27 -38 -27 -698 0 -660 0 -660 35 -728 23 -44 47
    -76 69 -90 19 -12 48 -31 65 -42 26 -17 48 -20 133 -20 91 0 105 3 130 23 15
    12 42 30 60 39 18 9 38 31 47 52 8 20 25 52 36 71 20 34 20 45 18 700 -3 665
    -3 665 -35 714 -18 27 -33 53 -33 57 0 6 -17 19 -99 70 -32 20 -117 29 -191
    19z" />
            <path d="M830 3161 c-7 -13 -10 -355 -10 -1038 0 -1126 -5 -1034 62 -1113 39
    -44 72 -51 245 -49 110 1 157 -2 168 -11 13 -11 15 -59 15 -325 0 -313 0 -313
    30 -393 41 -105 96 -155 198 -178 61 -14 77 -14 145 -1 79 15 94 26 183 130
    31 37 34 74 34 406 0 254 3 341 13 354 11 16 38 17 297 15 285 -3 285 -3 290
    -353 5 -350 5 -350 40 -410 19 -33 38 -62 42 -63 5 -2 26 -18 47 -36 57 -47
    139 -63 233 -46 40 8 82 23 97 35 14 11 38 29 54 38 15 10 27 23 27 31 0 7 12
    35 27 62 28 49 28 49 33 394 5 345 5 345 185 350 99 3 187 10 196 15 33 21 81
    87 90 123 5 20 9 490 9 1044 0 902 -2 1008 -16 1022 -14 14 -152 16 -1369 16
    -1329 0 -1354 0 -1365 -19z" />
        </g>
    </symbol>
</svg>