<svg xmlns="http://www.w3.org/2000/svg">
    <symbol
        id="circle"
        xmlns="http://www.w3.org/2000/svg"
        viewBox="0 0 224.000000 224.000000"
        preserveAspectRatio="xMidYMid meet"
    >
        <g
            transform="translate(0.000000,224.000000) scale(0.100000,-0.100000)"
            fill="currentColor"
            stroke="currentColor"
        >
            <path d="M900 2179 c-36 -11 -90 -27 -120 -36 -60 -17 -196 -79 -205 -94 -4
-5 -23 -18 -43 -30 -20 -11 -53 -31 -72 -44 -52 -37 -179 -158 -180 -172 0 -6
-15 -29 -32 -52 -66 -82 -75 -97 -88 -136 -7 -22 -21 -51 -31 -65 -11 -14 -23
-47 -28 -75 -5 -27 -20 -72 -32 -99 -19 -44 -22 -72 -26 -225 -4 -159 -2 -183
17 -246 12 -38 28 -95 37 -125 17 -60 79 -196 94 -205 5 -4 18 -23 30 -43 11
-20 31 -53 44 -72 37 -52 158 -179 172 -180 6 0 29 -15 52 -33 82 -65 97 -74
136 -87 22 -7 51 -21 65 -31 14 -11 48 -23 75 -28 28 -5 73 -20 100 -32 44
-20 71 -23 225 -26 158 -4 182 -2 245 17 39 12 95 28 125 37 60 17 196 79 205
94 4 5 23 18 43 30 20 11 53 31 72 44 52 37 179 158 180 172 0 6 15 29 33 52
65 82 74 97 87 136 7 22 21 51 31 65 11 14 23 48 28 75 5 28 20 72 32 99 19
44 22 72 26 225 4 159 2 183 -17 246 -12 39 -28 95 -37 125 -17 60 -79 196
-94 205 -5 4 -18 23 -30 43 -11 20 -31 53 -44 72 -37 52 -158 179 -172 180 -6
0 -29 15 -52 33 -82 65 -97 74 -136 87 -22 7 -51 21 -65 31 -14 11 -47 23 -75
28 -27 5 -72 20 -100 32 -44 19 -70 22 -230 25 -161 4 -187 2 -245 -17z m404
-487 c18 -11 50 -25 72 -32 52 -17 175 -120 229 -191 24 -32 58 -90 77 -131
33 -72 33 -75 32 -218 0 -137 -2 -148 -26 -195 -15 -27 -30 -61 -33 -75 -10
-38 -112 -157 -181 -211 -33 -25 -94 -62 -135 -80 -73 -33 -76 -34 -219 -33
-143 0 -146 0 -210 32 -36 18 -69 32 -75 32 -21 1 -150 117 -196 176 -25 33
-62 94 -80 135 -34 73 -34 75 -33 219 0 135 2 148 26 195 14 28 29 61 33 75
12 39 123 167 186 215 60 45 172 100 224 108 17 3 85 4 153 2 99 -3 130 -8
156 -23z" />
        </g>
    </symbol>
    <symbol
        id="arrow-right"
        xmlns="http://www.w3.org/2000/svg"
        viewBox="0 0 232.000000 253.000000"
        preserveAspectRatio="xMidYMid meet"
    >
        <g
            transform="translate(0.000000,253.000000) scale(0.100000,-0.100000)"
            fill="currentColor"
            stroke="currentColor"
        >
            <path d="M346 2455 c-44 -20 -92 -47 -108 -60 -15 -13 -36 -26 -47 -30 -10 -3
-24 -19 -31 -35 -6 -16 -20 -36 -31 -45 -10 -10 -24 -34 -30 -54 -7 -20 -22
-49 -33 -64 -21 -29 -21 -32 -21 -895 0 -867 0 -867 28 -914 15 -26 27 -53 27
-62 0 -20 79 -109 140 -157 26 -21 69 -44 96 -52 27 -8 67 -23 89 -32 48 -21
169 -16 207 8 12 9 44 19 70 22 27 4 54 15 65 27 10 11 41 31 68 45 90 44 133
68 151 85 11 9 35 23 54 32 57 26 118 63 151 90 17 14 39 26 48 26 10 0 35 14
56 30 21 17 43 30 50 30 7 0 29 14 50 30 21 17 46 30 55 30 9 0 34 14 55 30
21 16 43 30 50 30 7 0 29 13 50 30 21 16 46 30 56 30 9 0 30 10 46 23 44 35
149 97 166 97 9 0 28 11 44 24 15 13 42 31 60 40 107 54 201 141 252 229 44
78 60 220 38 340 -12 64 -24 97 -42 119 -14 16 -25 34 -25 39 0 12 -94 109
-106 109 -5 0 -25 13 -44 29 -19 15 -46 32 -60 36 -14 4 -34 15 -45 25 -11 10
-32 21 -47 25 -14 4 -36 17 -49 31 -12 13 -38 29 -58 35 -20 6 -45 19 -56 29
-11 10 -38 27 -60 38 -87 44 -135 71 -159 90 -14 10 -39 25 -56 32 -16 7 -30
16 -30 20 0 5 -21 16 -47 26 -27 10 -61 28 -76 41 -16 13 -32 23 -37 23 -5 0
-21 10 -37 23 -15 13 -49 31 -75 41 -27 10 -48 21 -48 26 0 4 -14 13 -31 21
-18 7 -43 22 -58 34 -14 12 -37 26 -50 30 -14 4 -42 20 -64 36 -22 16 -46 29
-53 29 -7 0 -25 11 -41 24 -15 13 -46 29 -68 36 -22 7 -52 22 -67 33 -22 16
-47 20 -140 24 -112 4 -113 4 -192 -32z" />
        </g>
    </symbol>
</svg>