<svg
    version="1.0"
    xmlns="http://www.w3.org/2000/svg"
    viewBox="0 0 2502.000000 1056.000000"
    preserveAspectRatio="xMidYMid meet"
>
    <g
        transform="translate(0.000000,1056.000000) scale(0.100000,-0.100000)"
        fill="#ffffff"
        stroke="none"
    >
        <path d="M9440 10501 c-104 -55 -194 -200 -271 -434 -10 -32 -24 -68 -31 -80
-6 -12 -24 -56 -39 -97 -69 -192 -121 -329 -139 -370 -11 -25 -43 -108 -71
-185 -29 -77 -69 -185 -90 -240 -21 -55 -63 -167 -94 -250 -30 -82 -76 -200
-100 -261 -25 -61 -45 -114 -45 -117 0 -10 -65 -179 -94 -247 -14 -30 -31 -75
-40 -100 -18 -56 -64 -180 -106 -285 -32 -81 -69 -180 -120 -315 -15 -41 -44
-118 -64 -170 -20 -52 -48 -124 -61 -160 -13 -36 -36 -96 -50 -135 -15 -38
-40 -104 -55 -145 -94 -251 -121 -300 -198 -354 -40 -28 -48 -30 -150 -32 -60
-1 -118 -7 -130 -13 -26 -14 -47 -73 -34 -98 6 -10 20 -27 32 -38 21 -19 37
-20 535 -20 514 0 514 0 544 29 35 33 38 54 16 96 -23 45 -67 54 -225 47 -167
-8 -204 0 -220 47 -12 37 4 127 33 182 8 16 23 59 32 94 9 36 21 70 26 76 5 7
20 43 34 80 13 38 37 105 53 149 17 44 47 125 67 180 20 55 45 125 57 155 11
30 33 93 49 138 33 97 71 167 96 176 9 4 289 7 620 7 514 -1 608 -3 632 -16
22 -11 34 -29 49 -72 11 -32 29 -80 40 -108 22 -53 60 -158 87 -240 43 -126
66 -189 74 -199 5 -6 17 -40 26 -75 9 -35 23 -74 31 -86 8 -12 21 -47 29 -77
8 -30 23 -70 34 -89 19 -34 40 -115 48 -196 6 -50 -24 -107 -60 -117 -12 -3
-95 -6 -185 -6 -169 0 -193 -5 -224 -44 -37 -44 -6 -116 56 -132 12 -2 382 -3
823 -2 801 3 801 3 827 27 32 30 34 78 6 113 -17 23 -28 26 -115 31 -83 5
-102 9 -135 32 -87 60 -134 143 -229 405 -69 189 -114 309 -132 355 -11 28
-40 106 -63 175 -24 69 -51 143 -60 165 -10 22 -30 76 -46 120 -15 44 -56 157
-91 250 -34 94 -75 204 -90 245 -15 41 -41 113 -59 160 -60 162 -70 190 -70
202 0 7 -7 27 -16 43 -9 17 -26 59 -39 95 -22 62 -65 179 -98 265 -9 22 -22
60 -30 85 -15 42 -31 89 -106 288 -17 45 -44 119 -61 165 -17 45 -41 114 -54
152 -12 39 -28 79 -34 90 -7 11 -21 47 -31 80 -53 165 -168 416 -223 486 -101
130 -187 168 -278 120z m-183 -1049 c6 -4 18 -32 27 -62 19 -68 69 -208 83
-235 6 -11 19 -49 28 -84 9 -35 23 -74 31 -87 9 -12 22 -44 29 -71 23 -78 64
-193 84 -237 11 -23 26 -61 34 -86 8 -25 31 -90 52 -145 20 -55 49 -136 64
-180 15 -44 35 -94 44 -112 22 -41 21 -66 -1 -87 -17 -15 -68 -16 -526 -18
-429 -1 -509 1 -517 13 -15 24 -10 69 15 128 14 31 37 88 52 126 14 39 41 109
60 156 19 48 45 118 58 155 30 88 74 203 86 229 5 11 21 52 35 90 15 39 40
106 56 150 17 44 39 107 51 140 11 33 24 65 28 70 5 6 16 37 25 70 9 33 24 66
33 73 18 13 51 16 69 4z" />
        <path d="M90 10417 c-31 -16 -54 -61 -46 -93 4 -14 21 -31 44 -43 31 -16 68
-19 232 -24 107 -3 213 -11 235 -17 53 -16 98 -66 118 -131 16 -50 17 -182 15
-1734 -3 -1680 -3 -1680 -33 -1734 -24 -44 -41 -60 -87 -84 -56 -29 -57 -29
-262 -33 -114 -2 -215 -8 -225 -13 -10 -6 -24 -24 -31 -41 -16 -40 -3 -72 42
-100 33 -20 41 -21 1599 -17 861 2 1570 7 1576 10 25 15 43 77 43 145 0 39 4
104 10 144 5 40 16 186 25 323 9 138 20 291 26 341 9 76 8 96 -4 127 -19 45
-54 57 -103 34 -38 -19 -41 -27 -95 -267 -17 -80 -43 -174 -56 -210 -84 -227
-211 -322 -508 -381 -150 -30 -150 -30 -550 -27 -400 3 -400 3 -451 30 -50 26
-96 75 -107 113 -3 11 -7 774 -9 1695 -3 1546 -2 1677 14 1705 24 44 80 94
119 106 19 6 122 13 229 16 185 4 197 6 233 29 30 20 37 30 37 57 -1 36 -14
58 -47 75 -33 18 -1948 17 -1983 -1z" />
        <path d="M3653 10420 c-29 -12 -56 -66 -49 -96 13 -52 42 -59 271 -65 228 -6
257 -12 307 -65 65 -69 60 65 59 -1799 -1 -929 -5 -1701 -8 -1715 -14 -57 -78
-127 -130 -144 -12 -4 -118 -9 -234 -10 -213 -4 -213 -4 -241 -35 -38 -42 -36
-72 8 -110 35 -32 35 -32 1674 -28 1523 3 1639 4 1664 20 32 22 33 24 46 247
6 102 17 273 25 380 8 107 18 252 21 321 7 120 6 127 -15 148 -28 28 -73 27
-104 -1 -31 -29 -52 -84 -72 -193 -23 -121 -78 -319 -108 -385 -32 -72 -128
-170 -205 -209 -63 -32 -144 -53 -301 -77 -74 -12 -190 -14 -570 -12 -477 3
-477 3 -535 38 -49 29 -63 44 -85 90 -26 55 -26 55 -29 785 -2 402 0 740 3
753 3 12 14 31 25 42 19 19 35 20 444 20 448 0 523 -6 650 -50 131 -45 210
-160 227 -328 5 -46 12 -88 15 -94 4 -5 22 -17 42 -25 32 -13 37 -13 61 5 51
38 51 30 51 605 0 517 -1 539 -20 577 -21 42 -44 54 -83 45 -43 -11 -56 -36
-66 -126 -17 -164 -96 -271 -241 -326 -102 -38 -165 -42 -625 -43 -440 -2
-440 -2 -463 25 -23 27 -23 27 -20 733 3 696 3 708 24 752 24 52 82 97 141
111 21 4 225 9 453 9 530 0 638 -14 810 -108 125 -68 181 -123 243 -235 32
-59 83 -239 92 -327 12 -112 24 -153 58 -187 34 -36 65 -41 101 -18 45 29 49
60 37 232 -7 87 -16 199 -21 248 -6 50 -17 194 -25 320 -8 127 -18 243 -21
258 -13 60 76 57 -1666 56 -899 0 -1603 -4 -1615 -9z" />
        <path d="M11708 10419 c-34 -13 -53 -64 -38 -103 17 -45 56 -53 270 -59 215
-6 249 -13 304 -65 25 -24 38 -47 46 -85 8 -38 10 -516 8 -1737 -3 -1605 -4
-1687 -21 -1727 -19 -42 -66 -82 -122 -103 -18 -7 -114 -13 -235 -16 -205 -3
-205 -3 -227 -29 -32 -36 -30 -85 3 -116 26 -24 26 -24 1112 -24 822 0 1113 4
1192 13 58 7 179 22 269 33 90 11 196 28 235 39 39 10 94 22 121 26 28 3 75
17 105 29 30 13 71 26 90 30 19 4 51 15 70 25 19 9 55 22 81 28 25 6 81 30
125 53 43 23 101 53 128 66 66 33 194 119 289 195 76 61 226 209 257 253 8 12
33 46 55 75 57 76 75 108 149 256 35 72 72 158 80 191 9 32 22 78 30 100 8 23
27 112 42 199 26 143 29 181 28 379 0 176 -4 248 -22 362 -26 168 -73 356
-107 433 -13 30 -41 93 -61 140 -37 83 -51 110 -123 220 -87 135 -259 314
-402 421 -97 72 -297 199 -314 199 -4 0 -66 26 -138 59 -183 81 -496 168 -703
195 -60 8 -139 20 -175 25 -36 6 -157 15 -270 21 -269 13 -2095 12 -2131 -1z
m2208 -244 c143 -19 308 -57 414 -97 92 -35 263 -126 350 -188 123 -86 300
-285 362 -405 8 -16 22 -43 31 -60 92 -174 163 -406 198 -640 27 -188 37 -552
20 -706 -18 -156 -64 -345 -111 -459 -79 -191 -129 -284 -213 -400 -63 -86
-263 -280 -355 -344 -99 -69 -268 -158 -337 -179 -27 -8 -66 -22 -85 -30 -19
-8 -96 -28 -170 -43 -132 -28 -143 -29 -440 -29 -305 0 -305 0 -355 27 -27 14
-63 40 -78 56 -26 28 -30 39 -38 134 -12 149 -11 3076 1 3162 6 39 18 84 28
100 24 41 90 86 149 102 69 18 487 18 629 -1z" />
        <path d="M16744 10416 c-52 -23 -61 -87 -18 -127 25 -23 31 -24 227 -30 122
-3 219 -11 244 -19 49 -15 106 -71 122 -119 15 -47 16 -3388 0 -3444 -6 -21
-26 -56 -45 -77 -59 -65 -79 -70 -304 -75 -111 -2 -210 -7 -221 -10 -10 -4
-28 -24 -39 -46 -19 -36 -19 -42 -5 -68 9 -18 28 -34 49 -41 24 -8 478 -10
1665 -7 1632 3 1632 3 1653 24 14 14 22 38 24 70 8 99 53 762 60 866 9 154 -9
188 -92 172 -30 -5 -38 -13 -55 -51 -21 -49 -53 -173 -63 -242 -4 -24 -19 -90
-35 -146 -75 -264 -185 -368 -454 -424 -132 -27 -132 -27 -642 -27 -510 0
-510 0 -560 26 -59 31 -79 52 -99 101 -13 30 -15 146 -16 797 -2 713 -1 764
16 782 16 18 35 19 443 19 450 0 521 -5 641 -45 142 -47 227 -161 237 -317 7
-99 14 -115 59 -134 37 -16 56 -10 88 24 17 20 18 52 18 587 0 618 1 606 -57
621 -26 6 -81 -11 -92 -29 -3 -6 -10 -49 -13 -97 -9 -102 -38 -167 -106 -241
-36 -37 -64 -55 -132 -82 -48 -19 -115 -37 -148 -41 -80 -9 -904 -9 -926 -1
-10 4 -20 14 -23 24 -2 9 -6 331 -7 716 -2 557 0 709 10 744 15 50 69 105 122
123 50 19 927 18 1025 0 170 -31 328 -105 416 -195 96 -98 138 -203 185 -468
30 -167 51 -209 107 -209 81 0 104 60 88 225 -6 60 -16 178 -22 260 -22 312
-46 591 -53 606 -4 9 -18 21 -32 28 -40 18 -3198 15 -3240 -3z" />
        <path d="M20754 10420 c-28 -11 -54 -48 -54 -76 0 -25 50 -71 83 -79 12 -2
105 -6 207 -8 140 -2 194 -7 221 -19 46 -20 107 -92 116 -137 5 -20 8 -794 8
-1721 0 -1635 -1 -1686 -19 -1723 -10 -21 -32 -52 -49 -68 -56 -57 -71 -60
-294 -64 -220 -4 -242 -9 -265 -60 -16 -35 -2 -71 36 -94 33 -21 38 -21 999
-21 965 0 965 0 996 25 39 33 46 57 26 94 -26 52 -42 56 -275 61 -215 5 -215
5 -258 34 -24 16 -55 50 -70 75 -27 46 -27 46 -30 715 -2 368 -1 680 2 692 10
39 40 47 171 45 67 -1 142 3 168 8 25 6 59 8 76 5 34 -7 84 -53 108 -99 9 -16
53 -86 98 -155 45 -69 101 -156 125 -195 24 -38 77 -122 118 -185 125 -192
138 -213 178 -280 21 -36 45 -74 54 -85 9 -11 38 -55 64 -97 27 -43 51 -78 55
-78 4 0 17 -21 30 -47 29 -60 107 -182 149 -235 17 -22 32 -44 32 -49 0 -16
90 -127 137 -169 85 -75 86 -75 690 -75 532 0 532 0 562 29 37 36 39 65 6 104
-24 28 -26 29 -150 35 -116 5 -132 8 -188 37 -108 56 -172 128 -307 345 -24
39 -67 106 -95 150 -28 44 -65 101 -81 127 -40 64 -135 213 -213 334 -37 56
-73 115 -82 130 -25 44 -165 265 -186 294 -10 14 -36 54 -57 90 -22 36 -51 79
-66 97 -16 17 -33 48 -40 69 -12 36 -11 39 14 61 15 13 33 23 40 23 8 0 73 27
146 61 373 171 595 403 661 693 48 206 47 330 -2 531 -78 316 -327 575 -672
698 -274 98 -527 142 -907 157 -295 12 -1988 12 -2016 0z m1891 -235 c283 -18
528 -106 688 -248 162 -143 240 -335 254 -622 5 -105 2 -137 -22 -260 -52
-267 -171 -431 -407 -563 -52 -29 -88 -44 -208 -86 -144 -50 -417 -86 -657
-86 -182 0 -163 -110 -163 920 0 951 -2 915 57 938 15 6 44 13 63 14 46 5 280
0 395 -7z" />
        <path d="M2155 4284 c-297 -44 -351 -56 -543 -120 -103 -34 -332 -143 -407
-194 -22 -15 -53 -36 -69 -46 -16 -10 -40 -27 -54 -36 -119 -79 -388 -364
-456 -483 -9 -16 -32 -55 -51 -85 -64 -104 -121 -234 -180 -416 -161 -497
-147 -1206 32 -1659 42 -108 157 -339 187 -377 11 -15 37 -48 56 -74 147 -196
258 -297 514 -466 262 -175 797 -302 1192 -285 211 9 501 81 649 160 215 115
455 327 561 497 95 152 174 361 174 459 0 53 -4 64 -31 96 -36 41 -64 50 -102
36 -47 -18 -85 -70 -101 -142 -53 -227 -235 -499 -430 -642 -111 -81 -127 -92
-191 -121 -318 -146 -700 -148 -1001 -6 -71 34 -195 116 -257 170 -42 37 -161
185 -213 266 -189 293 -294 750 -294 1277 0 582 114 1053 343 1423 68 110 93
142 186 235 128 128 238 197 416 259 102 36 188 50 325 50 446 1 782 -176 943
-496 44 -87 103 -246 112 -299 4 -22 15 -84 26 -137 10 -53 23 -167 27 -253 9
-156 9 -156 48 -196 27 -27 47 -39 67 -39 34 0 72 38 81 81 3 18 6 352 6 743
0 657 -1 714 -18 745 -23 46 -62 59 -109 37 -34 -16 -38 -23 -99 -165 -45
-106 -89 -118 -187 -52 -92 63 -263 145 -372 179 -179 56 -296 73 -535 77
-118 2 -228 1 -245 -1z" />
        <path d="M9364 4256 c-108 -73 -172 -180 -251 -416 -8 -25 -25 -70 -38 -100
-12 -30 -28 -73 -35 -95 -7 -22 -18 -53 -26 -70 -17 -40 -109 -278 -149 -390
-18 -49 -47 -126 -65 -170 -17 -44 -46 -120 -65 -170 -53 -142 -89 -239 -150
-395 -31 -80 -71 -185 -90 -235 -18 -49 -45 -121 -60 -160 -15 -38 -40 -104
-55 -145 -55 -146 -89 -236 -120 -315 -18 -44 -43 -111 -57 -150 -14 -38 -29
-74 -33 -80 -4 -5 -13 -30 -19 -55 -6 -25 -22 -70 -36 -100 -27 -60 -47 -113
-126 -325 -64 -174 -88 -237 -128 -344 -39 -104 -91 -180 -148 -216 -38 -24
-57 -28 -147 -32 -96 -5 -105 -4 -125 16 -25 25 -25 19 -5 241 43 497 51 648
35 678 -16 30 -73 39 -107 17 -33 -22 -49 -62 -64 -160 -6 -44 -19 -107 -30
-140 -10 -33 -24 -85 -31 -115 -20 -94 -75 -188 -153 -266 -98 -97 -193 -143
-371 -175 -123 -23 -152 -24 -530 -24 -357 0 -405 2 -451 18 -104 36 -131 94
-144 312 -12 195 -12 2835 -1 3025 18 279 48 304 400 318 196 7 204 8 222 31
24 30 24 72 0 102 -19 24 -19 24 -1003 26 -775 2 -988 0 -1008 -10 -34 -17
-55 -57 -46 -90 11 -46 44 -54 251 -60 137 -4 204 -11 242 -23 68 -22 122 -77
134 -136 12 -64 11 -3353 -1 -3419 -13 -71 -35 -98 -106 -133 -58 -28 -61 -29
-263 -33 -112 -2 -211 -8 -221 -13 -24 -13 -44 -64 -36 -95 13 -53 10 -52 701
-56 550 -3 3431 -4 3568 -1 30 0 60 9 83 22 32 20 35 26 32 63 -2 30 -10 45
-31 61 -27 20 -39 21 -186 18 -227 -5 -253 10 -237 130 4 29 18 75 31 102 13
28 29 74 35 101 6 28 17 59 24 70 7 11 22 47 34 80 12 33 35 98 53 145 17 47
42 117 55 155 14 39 31 84 38 100 8 17 19 48 26 70 7 22 20 56 30 75 9 19 23
58 29 85 14 56 55 136 82 160 15 15 84 16 630 16 587 0 614 -1 638 -19 15 -10
30 -32 35 -48 4 -16 17 -49 29 -74 11 -25 44 -115 74 -200 84 -238 90 -255
106 -286 8 -16 20 -53 26 -83 6 -30 20 -68 30 -85 11 -17 23 -49 27 -71 3 -22
17 -58 30 -80 23 -40 51 -143 60 -220 4 -34 0 -46 -26 -77 -31 -38 -31 -38
-205 -38 -222 0 -255 -12 -255 -91 0 -34 5 -42 39 -65 39 -25 39 -25 846 -20
868 7 844 5 860 57 10 31 -5 78 -28 93 -12 8 -61 16 -108 19 -94 5 -140 26
-200 90 -31 33 -109 180 -109 205 0 8 -9 31 -20 51 -11 20 -29 63 -39 96 -11
33 -34 98 -52 145 -17 47 -46 126 -64 175 -49 137 -113 311 -231 630 -59 160
-120 326 -135 370 -15 44 -42 116 -59 160 -17 44 -44 116 -60 160 -15 44 -42
118 -60 165 -17 47 -44 121 -60 165 -15 44 -42 117 -59 163 -71 189 -93 249
-107 292 -9 25 -24 68 -35 95 -12 28 -43 111 -69 185 -27 74 -65 178 -85 230
-20 52 -45 120 -56 150 -35 100 -150 318 -191 365 -99 113 -181 134 -274 71z
m-155 -1048 c5 -13 17 -45 26 -73 39 -116 63 -182 78 -210 8 -17 19 -48 23
-70 4 -22 20 -67 36 -100 15 -33 28 -67 28 -75 0 -8 8 -31 19 -50 10 -19 21
-52 25 -73 4 -20 20 -65 36 -100 17 -34 30 -70 30 -80 0 -10 7 -32 16 -50 9
-17 29 -68 44 -112 53 -153 78 -220 99 -265 25 -54 27 -93 5 -114 -14 -14 -75
-16 -523 -16 -381 0 -510 3 -519 12 -19 19 -14 54 16 126 16 37 41 101 56 142
15 41 41 107 57 145 15 39 52 133 80 210 29 77 70 187 91 245 22 58 48 128 58
155 11 28 35 93 55 145 20 52 43 118 52 145 8 28 24 58 35 68 29 24 66 22 77
-5z" />
        <path d="M12950 4270 c-69 -10 -179 -35 -245 -54 -123 -37 -334 -134 -402
-186 -21 -16 -58 -44 -82 -62 -76 -58 -158 -145 -225 -242 -75 -106 -112 -187
-152 -331 -26 -91 -29 -114 -29 -265 0 -149 3 -176 29 -275 43 -170 93 -271
194 -394 49 -60 132 -141 177 -171 20 -14 53 -38 74 -55 21 -16 54 -39 72 -50
19 -11 52 -30 74 -43 22 -13 47 -30 55 -37 20 -17 294 -149 342 -164 21 -7 40
-16 43 -21 3 -5 29 -16 58 -26 28 -9 63 -25 76 -35 13 -11 28 -19 34 -19 5 0
36 -13 69 -30 32 -16 64 -30 71 -30 17 0 296 -143 364 -186 107 -68 293 -282
293 -336 0 -10 12 -47 28 -81 26 -59 27 -70 27 -212 -1 -138 -3 -155 -27 -210
-14 -33 -28 -73 -32 -89 -4 -17 -19 -44 -34 -62 -15 -18 -38 -49 -52 -70 -86
-130 -274 -232 -468 -254 -427 -49 -786 107 -1032 449 -57 78 -128 230 -150
320 -11 42 -27 97 -35 122 -10 28 -18 96 -22 188 -6 141 -7 144 -38 190 -27
39 -37 46 -69 49 -49 4 -71 -16 -85 -76 -6 -30 -10 -299 -9 -722 0 -541 3
-681 14 -708 14 -35 55 -57 90 -48 32 8 91 107 99 167 8 58 57 119 96 119 13
0 85 -31 160 -69 216 -110 394 -170 613 -207 140 -23 481 -15 656 16 223 40
472 138 625 248 133 95 317 318 366 443 12 30 29 74 39 99 22 54 37 132 55
288 41 351 -93 691 -360 919 -122 104 -230 171 -458 283 -122 60 -242 118
-267 129 -25 10 -129 60 -232 110 -103 50 -191 91 -196 91 -5 0 -44 19 -88 42
-70 36 -103 57 -204 125 -53 36 -174 161 -217 226 -69 103 -86 168 -87 317 -1
142 18 223 79 334 78 141 195 236 365 297 95 34 95 34 280 33 185 0 185 0 292
-37 123 -42 186 -77 278 -152 67 -56 81 -70 140 -145 95 -122 196 -334 214
-450 4 -25 16 -76 26 -115 10 -38 24 -135 30 -215 14 -180 22 -211 62 -245 25
-21 38 -25 62 -21 40 8 66 35 74 77 4 19 5 361 2 761 -5 726 -5 726 -29 752
-59 63 -141 8 -174 -115 -35 -127 -83 -150 -186 -90 -157 93 -334 163 -501
198 -162 35 -432 40 -610 13z" />
        <path d="M16705 4284 c-435 -64 -683 -170 -915 -391 -140 -133 -222 -267 -281
-458 -34 -110 -34 -110 -34 -315 0 -201 1 -207 32 -312 33 -111 60 -173 98
-223 12 -16 30 -45 40 -64 21 -43 200 -221 257 -258 24 -15 72 -49 108 -74 75
-53 501 -273 570 -294 33 -10 131 -55 263 -121 59 -30 114 -54 121 -54 19 0
141 -66 220 -119 38 -25 79 -53 93 -62 90 -60 203 -224 240 -348 34 -112 43
-278 19 -363 -9 -32 -23 -84 -32 -115 -9 -32 -24 -67 -34 -78 -10 -11 -27 -38
-38 -60 -22 -45 -124 -146 -192 -191 -49 -32 -158 -77 -230 -94 -75 -17 -287
-24 -382 -11 -151 20 -325 87 -448 172 -103 71 -190 151 -234 215 -115 168
-151 238 -186 364 -10 36 -25 83 -33 105 -8 22 -20 110 -27 195 -10 137 -15
161 -40 210 -28 55 -28 55 -76 55 -48 0 -50 -1 -71 -45 -23 -44 -23 -44 -23
-730 0 -632 1 -688 18 -720 23 -47 62 -66 99 -48 34 17 89 116 97 176 8 57 47
102 88 102 15 0 72 -22 125 -50 369 -188 570 -240 921 -240 200 0 304 11 479
50 264 59 512 189 679 356 185 184 291 426 311 709 20 281 -34 501 -175 708
-139 205 -402 393 -772 552 -47 20 -139 63 -205 95 -66 32 -154 73 -195 90
-87 36 -110 46 -130 60 -8 5 -35 19 -60 31 -157 76 -190 97 -306 186 -116 90
-189 189 -240 324 -24 65 -28 88 -28 189 0 130 20 214 80 332 103 205 354 337
639 337 175 0 286 -25 438 -101 98 -49 189 -126 291 -250 27 -32 84 -125 91
-149 4 -13 15 -38 26 -54 64 -107 138 -415 149 -618 5 -115 10 -142 27 -165
43 -59 106 -63 146 -10 20 27 19 -50 17 1509 0 9 -12 28 -26 43 -56 55 -132
16 -160 -82 -25 -87 -58 -138 -99 -152 -32 -11 -40 -9 -92 21 -183 104 -337
166 -503 205 -87 21 -137 26 -295 29 -104 2 -203 1 -220 -1z" />
        <path d="M23095 4270 c-333 -50 -635 -159 -865 -313 -130 -87 -131 -87 -200
-147 -117 -100 -260 -260 -357 -397 -33 -47 -149 -272 -163 -318 -7 -22 -17
-46 -23 -52 -26 -33 -119 -394 -137 -533 -29 -218 -20 -753 15 -880 8 -30 22
-90 30 -133 8 -42 23 -96 34 -120 11 -23 22 -60 26 -82 4 -22 17 -62 30 -90
13 -27 39 -84 58 -125 35 -76 79 -149 152 -255 22 -32 50 -72 61 -89 21 -30
174 -187 231 -236 171 -147 444 -293 673 -359 233 -67 571 -109 788 -97 137 7
345 48 457 91 92 34 303 145 357 187 154 119 216 179 303 293 76 100 96 132
141 225 40 82 104 286 104 332 0 62 -58 128 -113 128 -22 0 -41 -11 -72 -42
-34 -35 -44 -54 -54 -103 -24 -126 -128 -329 -235 -460 -105 -128 -204 -208
-357 -289 -230 -122 -462 -157 -749 -115 -300 44 -587 248 -765 544 -109 180
-186 399 -229 645 -8 47 -21 117 -30 155 -36 175 -27 842 14 1003 10 42 22
109 26 147 4 39 16 90 26 115 11 24 26 78 33 118 8 41 19 80 25 87 6 7 21 44
34 82 13 38 28 78 34 89 6 10 30 57 52 104 59 119 85 159 168 260 242 294 491
420 833 420 458 0 798 -183 962 -520 39 -79 90 -235 102 -310 4 -25 16 -89 26
-143 10 -54 19 -129 19 -165 0 -37 5 -101 10 -142 9 -67 13 -78 45 -107 43
-41 75 -42 117 -4 33 29 33 29 30 782 -2 578 -5 756 -15 767 -6 8 -27 21 -45
29 -28 12 -36 11 -62 -2 -38 -20 -54 -45 -91 -141 -16 -44 -39 -87 -50 -96
-31 -26 -80 -22 -125 8 -166 113 -383 202 -589 241 -186 35 -504 41 -690 13z" />
        <path d="M18858 4189 c-56 -21 -58 -118 -3 -139 15 -6 81 -10 148 -10 178 0
281 -14 346 -47 67 -34 85 -67 100 -176 15 -105 15 -3166 1 -3290 -23 -198
-71 -227 -379 -233 -210 -4 -238 -11 -254 -57 -13 -41 -1 -74 36 -93 29 -16
111 -17 1004 -17 971 0 971 0 1002 22 39 28 43 80 8 115 -22 22 -31 23 -227
29 -228 6 -272 16 -328 69 -18 18 -38 48 -44 68 -16 44 -24 3304 -9 3411 22
160 107 197 454 199 120 0 162 14 173 55 10 39 -4 73 -36 90 -25 13 -150 15
-997 14 -609 0 -978 -4 -995 -10z" />
    </g>
</svg>