<?xml version="1.0" encoding="UTF-8"?>
<svg
    xmlns="http://www.w3.org/2000/svg"
    xmlns:xlink="http://www.w3.org/1999/xlink"
>
    <symbol
        id="copy-tool"
        xmlns="http://www.w3.org/2000/svg"
        viewBox="0 0 887.000000 1064.000000"
        preserveAspectRatio="xMidYMid meet"
    >
        <g
            transform="translate(0.000000,1064.000000) scale(0.100000,-0.100000)"
            fill="currentColor"
            stroke="currentColor"
        >
            <path d="M1900 10592 c0 -16 -51 -32 -149 -49 -53 -8 -112 -24 -131 -33 -20
-10 -62 -23 -95 -29 -33 -6 -72 -20 -86 -30 -14 -11 -46 -25 -70 -31 -24 -6
-60 -22 -79 -34 -19 -13 -46 -26 -59 -31 -13 -4 -39 -18 -58 -31 -20 -13 -42
-24 -49 -24 -7 0 -27 -12 -43 -27 -16 -16 -58 -46 -93 -68 -109 -68 -275 -218
-423 -382 -77 -85 -145 -173 -145 -188 0 -7 -12 -27 -26 -44 -28 -33 -63 -93
-93 -157 -11 -23 -24 -45 -30 -48 -6 -4 -17 -29 -25 -57 -8 -27 -24 -61 -35
-75 -11 -14 -25 -51 -31 -82 -7 -31 -19 -68 -28 -82 -9 -14 -26 -70 -39 -125
-12 -55 -29 -129 -37 -164 -34 -149 -37 -397 -33 -2726 3 -1612 7 -2307 15
-2372 6 -51 22 -135 36 -185 13 -51 27 -111 31 -133 4 -22 15 -54 26 -71 10
-17 24 -55 29 -85 6 -29 17 -60 25 -69 8 -9 23 -39 32 -65 9 -27 27 -64 40
-83 12 -19 23 -41 23 -48 0 -7 11 -25 24 -41 13 -15 26 -38 30 -51 4 -12 18
-34 30 -50 13 -15 29 -39 37 -54 17 -32 124 -174 157 -208 13 -14 54 -57 90
-96 89 -93 254 -233 312 -264 14 -7 36 -22 50 -32 59 -44 128 -86 162 -97 20
-7 42 -18 48 -26 6 -8 28 -19 48 -26 20 -6 48 -20 62 -29 14 -10 45 -23 70
-30 25 -6 59 -20 75 -30 17 -11 61 -24 98 -30 37 -6 84 -19 105 -30 25 -13 82
-25 177 -35 77 -9 167 -20 200 -25 82 -13 2893 -13 2966 0 30 5 115 16 190 24
91 9 152 21 184 35 26 12 73 25 105 30 32 5 75 18 96 29 22 11 56 25 77 32 56
18 204 87 211 99 4 5 23 15 44 22 20 6 49 22 64 35 16 12 38 26 50 30 13 4 37
18 54 33 47 40 83 68 154 120 108 81 313 299 392 419 9 13 21 28 26 31 5 3 19
25 31 48 11 23 26 45 31 48 6 4 22 30 36 58 13 29 42 86 64 127 22 41 45 91
51 110 6 19 19 49 29 65 10 17 23 57 30 90 7 33 21 74 31 92 12 19 24 66 30
120 6 48 20 122 32 163 22 75 22 75 22 2245 0 2170 0 2170 -22 2241 -13 39
-27 104 -33 145 -6 41 -21 94 -34 119 -13 25 -26 63 -30 84 -4 22 -18 55 -32
75 -13 20 -24 43 -24 52 0 9 -8 27 -19 40 -10 13 -28 44 -41 68 -12 24 -30 53
-41 64 -10 12 -19 25 -19 29 0 19 -200 258 -263 316 -14 12 -585 584 -654 655
-64 64 -390 379 -415 399 -53 44 -133 101 -189 133 -28 17 -69 42 -92 57 -23
15 -49 28 -58 28 -8 0 -35 13 -60 29 -24 16 -64 31 -89 35 -24 4 -58 15 -75
26 -17 10 -62 24 -100 30 -91 14 -132 27 -139 45 -5 13 -187 15 -1376 15 -753
0 -1370 -4 -1370 -8z m2525 -894 c6 -6 12 -196 15 -511 5 -502 5 -502 39 -607
19 -58 45 -118 58 -133 13 -16 23 -37 23 -47 0 -48 243 -294 310 -315 14 -4
41 -18 60 -31 20 -13 67 -33 105 -43 39 -11 95 -27 125 -35 46 -14 126 -16
526 -16 416 0 474 -2 488 -16 14 -14 16 -214 16 -2052 0 -1361 -3 -2065 -10
-2121 -6 -46 -19 -100 -29 -120 -10 -20 -24 -60 -30 -89 -6 -30 -22 -72 -35
-95 -13 -23 -27 -53 -31 -67 -4 -14 -17 -36 -27 -50 -11 -14 -43 -61 -71 -105
-69 -107 -247 -284 -335 -333 -16 -9 -43 -26 -59 -36 -78 -53 -100 -65 -128
-72 -16 -4 -54 -20 -84 -35 -30 -16 -67 -29 -82 -29 -16 0 -63 -12 -106 -28
-78 -27 -78 -27 -1598 -27 -1520 0 -1520 0 -1585 22 -36 13 -87 26 -115 29
-27 4 -68 16 -90 29 -22 12 -58 28 -80 35 -22 7 -51 21 -65 30 -14 9 -54 34
-90 55 -113 67 -195 138 -308 271 -94 109 -123 152 -166 244 -9 19 -23 46 -31
60 -8 14 -20 45 -28 70 -9 25 -22 65 -31 90 -8 25 -25 95 -38 155 -23 110 -23
110 -23 2430 0 2320 0 2320 23 2420 34 148 38 162 71 253 16 46 37 92 46 102
9 10 20 34 26 53 5 20 17 44 27 53 9 10 26 32 37 50 58 96 232 275 327 339 17
11 50 32 72 48 23 15 61 36 86 47 25 12 68 32 95 45 98 46 218 78 340 90 146
15 2344 8 2360 -7z" />
            <path d="M8350 7519 c-64 -10 -156 -44 -191 -71 -119 -91 -171 -173 -189 -295
-6 -43 -10 -979 -10 -2538 0 -1545 -4 -2486 -10 -2512 -5 -23 -17 -87 -25
-143 -9 -59 -25 -120 -39 -148 -13 -26 -26 -63 -30 -83 -4 -21 -15 -48 -25
-61 -10 -13 -26 -40 -34 -60 -9 -21 -25 -47 -36 -60 -12 -12 -21 -26 -21 -31
0 -26 -183 -228 -266 -292 -42 -33 -85 -68 -97 -78 -12 -10 -39 -27 -62 -38
-22 -10 -76 -39 -120 -63 -44 -25 -94 -45 -110 -45 -17 -1 -49 -10 -70 -21
-22 -12 -58 -26 -80 -32 -30 -9 -597 -14 -2185 -18 -2145 -6 -2145 -6 -2211
-32 -184 -74 -301 -237 -301 -419 0 -47 6 -88 15 -105 8 -16 17 -42 21 -57 17
-73 143 -208 206 -222 16 -4 38 -17 49 -31 19 -24 19 -24 2229 -24 1965 0
2211 2 2216 15 8 22 42 32 144 44 52 5 114 20 148 34 33 14 79 28 104 32 25 4
52 13 60 21 9 7 35 20 57 28 65 23 190 85 203 101 6 7 24 17 40 20 16 4 41 16
56 28 15 12 42 31 60 42 57 36 114 75 135 93 10 9 34 29 52 44 184 155 425
435 485 563 11 22 26 46 35 53 9 8 21 30 28 49 6 20 22 51 35 71 13 19 24 42
24 50 0 8 11 34 24 56 12 23 28 63 35 90 7 27 21 66 31 87 11 20 25 70 31 111
6 40 20 94 30 120 10 26 23 96 29 155 14 150 13 5201 -1 5263 -24 104 -154
245 -254 275 -24 8 -52 18 -62 23 -26 14 -101 19 -153 11z" />
        </g>
    </symbol>
    <symbol
        id="support-icon"
        viewBox="0 0 355.000000 355.000000"
        preserveAspectRatio="xMidYMid meet"
    >
        <g
            transform="translate(0.000000,355.000000) scale(0.100000,-0.100000)"
            fill="currentColor"
            stroke="currentColor"
        >
            <path d="M130 3535 c0 -9 -15 -25 -34 -36 -19 -11 -39 -33 -46 -50 -7 -16 -21
-34 -31 -40 -18 -9 -19 -60 -19 -1631 0 -1598 0 -1621 20 -1642 11 -12 44 -47
74 -79 l55 -57 1701 0 1700 0 0 1775 0 1775 -1710 0 c-1530 0 -1710 -2 -1710
-15z m1840 -329 c131 -24 255 -87 361 -184 112 -103 172 -210 203 -362 l11
-55 55 -5 c43 -4 64 -12 97 -39 23 -18 47 -47 52 -64 7 -17 11 -121 11 -247 0
-209 -1 -218 -23 -251 -34 -50 -100 -93 -131 -85 -47 12 -72 86 -29 86 8 0 28
13 44 29 l29 29 0 204 c0 145 -3 207 -12 216 -18 18 -66 15 -77 -5 -5 -10 -11
-106 -13 -213 -3 -175 -6 -200 -26 -244 -12 -27 -22 -56 -22 -65 0 -19 -43
-102 -78 -151 -64 -88 -245 -225 -324 -245 -16 -4 -43 -27 -64 -55 -57 -74
-98 -90 -238 -90 -129 0 -165 11 -220 69 -22 22 -30 43 -34 80 -6 68 11 105
67 144 45 31 48 32 178 35 145 4 171 -3 220 -58 14 -17 32 -30 39 -30 24 0
138 69 198 119 86 73 141 152 171 246 24 77 25 88 25 346 0 296 -8 343 -72
457 -68 120 -228 238 -378 278 -90 24 -284 24 -364 0 -165 -50 -291 -144 -374
-281 -60 -99 -65 -131 -69 -460 -3 -276 -5 -304 -24 -345 -15 -35 -32 -52 -69
-73 -58 -33 -76 -33 -135 -5 -31 15 -54 36 -70 64 -25 42 -25 47 -25 261 0
238 -2 231 63 301 37 39 63 41 79 6 11 -23 9 -33 -15 -75 -27 -48 -27 -51 -27
-233 0 -170 1 -185 21 -210 25 -32 54 -33 73 -3 12 17 16 82 20 312 6 360 17
411 116 559 30 45 177 186 193 186 5 0 21 9 37 20 45 32 171 78 241 88 96 14
224 13 309 -2z m-18 -192 c32 -7 83 -26 113 -42 162 -82 313 -290 233 -321
-30 -12 -55 4 -93 60 -165 244 -486 290 -709 102 -22 -18 -57 -59 -78 -90 -45
-66 -60 -77 -93 -69 -106 27 78 261 264 336 121 48 233 56 363 24z m-1145
-1949 c34 -10 61 -27 82 -50 34 -40 33 -37 25 -59 -9 -25 -51 -19 -70 9 -18
28 -66 41 -119 31 -42 -8 -65 -30 -65 -61 0 -28 64 -69 122 -78 46 -7 115 -52
134 -88 43 -85 -28 -180 -146 -196 -64 -9 -151 34 -180 87 -26 49 34 69 68 23
16 -23 28 -27 78 -30 78 -5 109 11 109 56 0 41 -31 68 -93 82 -48 10 -147 70
-156 94 -27 72 19 154 103 179 59 18 49 18 108 1z m2097 -41 c9 -8 16 -24 16
-35 0 -12 13 -25 38 -36 45 -22 47 -43 7 -62 -16 -8 -33 -19 -37 -25 -4 -6 -8
-50 -8 -98 l0 -88 40 -25 c44 -28 52 -58 20 -75 -27 -15 -81 9 -109 48 -18 26
-21 44 -21 136 0 93 -3 109 -20 126 -11 11 -20 26 -20 33 0 7 9 20 20 30 11 9
20 27 20 40 0 22 16 47 31 47 4 0 15 -7 23 -16z m-1253 -122 c52 -54 66 -98
54 -180 -8 -63 -62 -124 -124 -143 -37 -11 -46 -10 -72 5 -43 26 -63 7 -54
-51 7 -49 -7 -83 -34 -83 -39 0 -41 19 -39 256 l3 229 50 0 c28 0 59 6 70 13
39 24 95 6 146 -46z m384 23 c52 -39 65 -72 65 -167 0 -82 -1 -84 -38 -125
-47 -54 -119 -78 -150 -50 -41 37 -69 10 -57 -57 8 -40 -8 -76 -33 -76 -39 0
-42 16 -42 246 0 189 2 225 16 238 19 20 24 20 52 0 21 -14 24 -14 50 6 35 28
89 22 137 -15z m380 -1 c45 -34 85 -111 85 -161 -1 -79 -58 -160 -130 -182
-132 -39 -252 119 -194 257 46 112 154 151 239 86z m336 20 c18 -22 1 -46 -41
-60 -53 -18 -60 -35 -60 -155 0 -59 -3 -114 -6 -123 -7 -19 -59 -22 -70 -4 -9
15 -8 314 1 328 3 6 25 10 48 11 23 0 51 4 62 9 31 13 51 11 66 -6z m-1693 -6
c8 -8 12 -47 12 -110 0 -114 15 -164 54 -174 41 -10 59 -1 82 40 19 33 21 49
17 116 -7 93 0 126 28 135 43 14 49 -7 49 -174 0 -86 -4 -161 -8 -168 -4 -7
-28 -11 -57 -11 -28 1 -67 -2 -87 -7 -48 -10 -88 6 -119 48 -22 29 -24 43 -27
166 -3 103 -1 136 10 142 18 12 32 11 46 -3z" />
            <path d="M1660 1612 c-29 -24 -21 -64 15 -80 39 -18 209 -15 245 3 37 19 40
57 8 79 -35 25 -238 23 -268 -2z" />
            <path d="M1494 867 c-46 -40 -51 -151 -8 -198 19 -21 73 -25 105 -9 27 15 49
63 49 109 0 37 -29 87 -65 113 -19 14 -54 8 -81 -15z" />
            <path d="M1891 859 c-48 -52 -47 -160 2 -194 67 -47 147 9 147 104 0 37 -29
87 -65 113 -22 16 -57 7 -84 -23z" />
            <path d="M2274 856 c-36 -36 -36 -38 -32 -102 5 -78 27 -104 87 -104 46 0 57
8 81 55 27 54 25 75 -12 131 -44 65 -74 70 -124 20z" />
        </g>
    </symbol>
    <symbol
        id="arrow-top"
        xmlns="http://www.w3.org/2000/svg"
        viewBox="0 0 974.000000 978.000000"
        preserveAspectRatio="xMidYMid meet"
    >
        <g
            transform="translate(0.000000,978.000000) scale(0.100000,-0.100000)"
            fill="currentColor"
            stroke="currentColor"
        >
            <path d="M4655 9769 c-220 -11 -469 -37 -584 -60 -53 -11 -118 -24 -146 -29
-243 -46 -393 -82 -429 -105 -11 -7 -55 -21 -96 -30 -84 -20 -221 -69 -256
-92 -13 -8 -38 -19 -56 -24 -62 -16 -152 -51 -178 -69 -24 -17 -126 -60 -180
-76 -14 -4 -41 -19 -60 -34 -32 -26 -167 -90 -187 -90 -5 0 -22 -14 -38 -30
-16 -17 -68 -51 -115 -77 -122 -65 -196 -112 -247 -158 -25 -22 -60 -49 -78
-60 -59 -36 -179 -126 -253 -190 -26 -23 -69 -58 -96 -79 -76 -62 -392 -380
-492 -498 -84 -98 -157 -194 -241 -315 -17 -25 -47 -62 -66 -82 -19 -20 -38
-46 -42 -59 -3 -12 -17 -35 -30 -50 -13 -15 -44 -68 -69 -117 -25 -49 -57
-100 -70 -114 -26 -27 -96 -157 -96 -178 0 -7 -14 -28 -31 -47 -18 -21 -42
-70 -61 -128 -18 -54 -43 -107 -60 -126 -15 -18 -28 -41 -28 -51 0 -24 -47
-159 -64 -186 -22 -33 -61 -143 -81 -225 -10 -41 -28 -102 -40 -135 -35 -94
-52 -154 -65 -230 -7 -38 -21 -115 -33 -170 -11 -55 -23 -118 -28 -140 -4 -22
-14 -71 -22 -110 -26 -115 -37 -343 -37 -727 0 -381 11 -599 35 -708 24 -107
72 -350 86 -430 7 -41 28 -118 47 -170 18 -52 44 -135 57 -185 28 -107 52
-181 71 -215 34 -63 54 -111 68 -164 9 -32 26 -73 39 -90 22 -29 43 -79 68
-166 6 -19 21 -46 34 -60 23 -25 95 -169 95 -189 0 -6 17 -30 38 -54 21 -23
55 -76 76 -117 21 -41 48 -88 61 -105 12 -16 31 -48 42 -70 12 -22 31 -49 42
-59 12 -11 54 -65 94 -120 95 -134 128 -176 217 -282 84 -100 418 -435 489
-491 25 -20 64 -54 86 -74 42 -40 44 -41 212 -160 59 -42 119 -89 133 -104 14
-15 41 -33 60 -41 19 -8 44 -23 55 -33 11 -10 63 -41 116 -69 52 -28 104 -61
115 -73 17 -20 171 -99 191 -99 5 0 24 -13 44 -29 19 -16 71 -41 114 -56 44
-15 96 -37 115 -50 19 -13 77 -38 129 -55 52 -17 102 -37 110 -44 20 -17 137
-59 256 -91 50 -13 134 -39 187 -58 53 -19 123 -38 155 -42 32 -3 85 -13 118
-20 73 -16 141 -29 260 -50 50 -9 106 -20 125 -25 19 -5 51 -12 70 -16 19 -4
266 -9 549 -11 l513 -3 172 34 c94 19 221 44 281 55 61 12 155 29 210 40 101
19 145 32 201 58 17 8 80 27 140 43 129 34 171 49 250 89 33 16 88 38 124 47
36 10 79 28 95 41 17 12 71 37 120 54 50 18 101 42 115 55 14 12 63 39 110 60
47 20 103 51 125 69 22 18 76 51 120 75 44 23 89 50 100 60 11 10 40 28 65 40
25 13 63 39 85 59 23 20 94 74 160 121 129 93 179 135 359 303 229 214 431
435 541 592 76 109 108 151 146 192 21 23 39 49 39 57 0 9 13 30 28 48 16 18
54 81 85 139 31 59 68 114 82 123 14 9 25 22 25 29 0 21 79 178 105 209 14 16
25 37 25 46 0 9 6 29 14 44 8 14 19 43 26 65 7 21 23 55 37 75 14 20 29 52 33
70 16 60 47 142 68 178 20 33 41 96 90 265 11 39 28 93 37 120 17 53 37 124
54 190 5 22 19 103 31 180 11 77 32 174 45 215 l25 76 0 676 c0 642 -1 679
-19 721 -10 24 -27 93 -36 153 -21 136 -65 354 -75 374 -4 8 -11 33 -14 54 -4
21 -14 48 -21 60 -8 12 -24 62 -36 111 -11 50 -30 111 -40 137 -11 26 -19 52
-19 58 0 6 -9 23 -20 38 -11 15 -33 70 -50 122 -17 52 -39 107 -49 121 -18 24
-55 113 -80 189 -6 19 -20 44 -31 55 -21 22 -90 158 -90 177 0 6 -15 27 -34
48 -18 20 -59 84 -91 141 -79 144 -119 207 -159 249 -19 19 -41 50 -50 68 -9
17 -21 32 -25 32 -5 0 -24 23 -41 52 -139 225 -709 793 -932 927 -21 12 -38
26 -38 30 0 4 -17 17 -37 28 -21 12 -51 36 -68 53 -16 18 -48 41 -70 52 -22
12 -53 31 -70 43 -16 12 -66 41 -110 65 -44 24 -98 57 -120 75 -22 18 -78 49
-125 69 -47 21 -96 48 -110 61 -14 13 -38 27 -55 31 -46 11 -167 63 -184 79
-9 7 -59 28 -111 45 -52 17 -108 39 -125 48 -49 28 -165 69 -250 87 -44 10
-91 24 -103 32 -36 22 -103 39 -401 98 -151 30 -342 62 -425 70 -129 13 -571
37 -601 33 -5 0 -82 -5 -170 -9z m428 -2895 c29 -15 75 -47 104 -73 29 -25 84
-73 124 -106 39 -33 186 -174 327 -314 142 -140 282 -272 312 -294 30 -23 177
-161 325 -308 149 -147 306 -298 350 -334 88 -74 172 -163 199 -210 9 -16 28
-48 41 -70 29 -47 31 -75 9 -139 -12 -36 -30 -59 -76 -97 -102 -85 -130 -92
-239 -62 -64 18 -70 23 -379 321 -52 51 -98 92 -103 92 -4 0 -133 126 -287
280 -153 153 -298 291 -322 306 -24 14 -61 43 -83 64 -54 52 -84 58 -121 27
-26 -22 -29 -32 -28 -79 6 -394 2 -2957 -5 -2999 -23 -140 -106 -229 -220
-237 -59 -4 -135 21 -175 56 -32 29 -66 109 -76 179 -14 96 -13 2871 0 2946
13 66 -3 115 -44 142 -35 23 -65 14 -134 -42 -55 -44 -200 -181 -253 -239 -60
-66 -377 -372 -410 -396 -20 -15 -110 -100 -200 -190 -186 -186 -215 -209
-283 -232 -92 -30 -133 -20 -234 57 -63 47 -79 76 -88 149 -7 57 -3 67 59 170
26 42 173 189 267 267 36 30 180 168 320 308 140 139 267 261 281 271 36 24
60 47 309 292 255 251 381 369 407 383 10 5 36 27 58 48 96 91 175 110 268 63z" />
        </g>
    </symbol>
    <symbol
        id="angle-small-down"
        viewBox="0 0 13 7"
        fill="currentColor"
    >
        <path
            d="M12.5682 0.271148C12.483 0.185231 12.3816 0.117036 12.2699 0.0704978C12.1582 0.0239598 12.0384 0 11.9174 0C11.7964 0 11.6766 0.0239598 11.5649 0.0704978C11.4532 0.117036 11.3518 0.185231 11.2666 0.271148L7.06823 4.46948C6.98301 4.5554 6.88163 4.62359 6.76992 4.67013C6.65822 4.71667 6.5384 4.74063 6.41739 4.74063C6.29638 4.74063 6.17657 4.71667 6.06486 4.67013C5.95316 4.62359 5.85178 4.5554 5.76656 4.46948L1.56823 0.271148C1.48301 0.185231 1.38163 0.117036 1.26992 0.0704978C1.15822 0.0239598 1.0384 0 0.917393 0C0.796382 0 0.676569 0.0239598 0.564864 0.0704978C0.45316 0.117036 0.351776 0.185231 0.26656 0.271148C0.0958297 0.442897 0 0.675228 0 0.917398C0 1.15957 0.0958297 1.3919 0.26656 1.56365L4.47406 5.77115C4.98969 6.28613 5.68864 6.57539 6.41739 6.57539C7.14615 6.57539 7.8451 6.28613 8.36073 5.77115L12.5682 1.56365C12.739 1.3919 12.8348 1.15957 12.8348 0.917398C12.8348 0.675228 12.739 0.442897 12.5682 0.271148Z"
            fill="currentColor"
        />
    </symbol>
</svg>