<svg xmlns="http://www.w3.org/2000/svg">
    <symbol id="1" viewBox="0 0 175 175" preserveAspectRatio="xMidYMid meet">
        <g transform="translate(0.000000,175.000000) scale(0.100000,-0.100000)" fill="currentColor"
            stroke="currentColor">
            <path d="M603 1731 c-6 -10 -27 -21 -46 -25 -38 -7 -142 -57 -194 -92 -137
-92 -251 -238 -327 -416 -8 -21 -20 -38 -26 -38 -6 0 -10 -93 -10 -266 l0
-266 25 -30 c14 -16 25 -35 25 -43 0 -15 49 -111 77 -150 141 -201 325 -326
531 -361 53 -9 109 -22 124 -30 35 -18 111 -18 147 0 15 8 70 22 121 31 262
45 498 250 621 537 16 37 29 73 29 81 0 8 12 55 26 103 24 81 25 95 15 159
-37 239 -121 419 -276 584 -33 35 -78 75 -100 89 -69 44 -179 99 -212 106 -17
4 -39 16 -49 27 -16 18 -32 19 -253 19 -220 0 -237 -1 -248 -19z m426 -421
c41 -12 51 -24 51 -68 0 -26 -5 -34 -26 -42 -14 -6 -36 -10 -49 -10 -14 0 -39
-13 -57 -29 -30 -26 -33 -35 -32 -82 1 -62 18 -79 80 -79 46 0 79 -22 70 -47
-4 -8 -9 -27 -12 -41 -10 -41 -23 -52 -63 -52 -20 0 -47 -7 -59 -16 -21 -15
-22 -20 -22 -195 l0 -179 -24 -9 c-33 -13 -105 -2 -115 18 -5 9 -9 93 -10 186
-1 188 -3 195 -66 195 -42 0 -55 16 -55 70 0 57 12 70 67 70 53 0 65 18 57 87
-12 100 61 207 152 222 70 12 75 12 113 1z" />
        </g>
    </symbol>

    <symbol id="2" viewBox="0 0 175.000000 175.000000" preserveAspectRatio="xMidYMid meet">
        <g transform="translate(0.000000,175.000000) scale(0.100000,-0.100000)" fill="currentColor"
            stroke="currentColor">
            <path d="M636 1731 c-10 -11 -32 -23 -50 -27 -30 -6 -123 -52 -199 -98 -135
-82 -306 -325 -346 -493 -7 -28 -19 -60 -26 -70 -21 -26 -21 -290 -1 -312 8
-9 22 -45 31 -80 17 -67 87 -211 127 -261 13 -16 39 -50 58 -75 89 -117 305
-248 440 -266 41 -6 93 -18 115 -26 61 -24 137 -28 173 -9 17 9 71 22 120 30
88 14 190 50 241 85 14 10 38 25 52 34 131 79 283 273 335 429 8 25 22 52 30
58 11 10 14 54 14 240 0 212 -1 228 -19 244 -11 10 -23 32 -27 48 -15 72 -98
211 -184 311 -70 80 -252 195 -338 212 -18 4 -38 15 -45 26 -11 18 -26 19
-248 19 -221 0 -237 -1 -253 -19z m283 -656 c12 -12 16 -37 16 -104 1 -89 11
-121 40 -121 19 0 67 64 104 137 17 34 40 67 50 73 27 14 144 13 159 -2 24
-24 11 -60 -53 -144 -36 -47 -65 -94 -65 -106 0 -11 28 -49 65 -87 94 -98 89
-136 -20 -139 -64 -3 -127 24 -175 73 -24 25 -50 45 -56 45 -20 0 -44 -29 -44
-52 0 -55 -59 -71 -170 -47 -58 12 -136 69 -175 127 -14 20 -50 71 -79 112
-30 41 -55 79 -55 84 -1 5 -10 29 -22 53 -11 23 -19 53 -17 65 3 21 9 23 71
26 38 2 74 -2 81 -7 7 -6 30 -45 52 -87 41 -80 85 -127 109 -118 27 11 39 77
26 136 -19 84 -19 91 9 99 39 12 131 2 149 -16z" />
        </g>
    </symbol>


    <symbol id="3" viewBox="0 0 175.000000 175.000000" preserveAspectRatio="xMidYMid meet">
        <g transform="translate(0.000000,175.000000) scale(0.100000,-0.100000)" fill="currentColor"
            stroke="currentColor">
            <path d="M727 1734 c-16 -8 -61 -22 -100 -30 -98 -21 -259 -108 -342 -186 -84
-78 -174 -206 -220 -310 -20 -46 -43 -90 -51 -99 -11 -12 -14 -61 -14 -246 0
-217 1 -231 20 -248 11 -10 20 -23 20 -29 0 -19 56 -128 93 -183 94 -140 133
-179 265 -270 38 -26 140 -75 194 -92 20 -7 42 -19 48 -27 10 -11 52 -14 230
-14 202 0 218 1 234 19 10 11 32 23 48 27 31 6 113 43 177 80 88 50 216 180
279 284 38 63 92 179 92 198 0 10 11 41 25 68 23 45 25 59 25 192 0 127 -2
147 -19 169 -11 13 -23 45 -27 71 -18 128 -190 381 -312 459 -31 20 -68 44
-82 53 -49 32 -146 71 -213 86 -37 7 -81 21 -97 29 -41 21 -234 20 -273 -1z
m400 -521 c44 -22 60 -39 85 -82 l32 -55 0 -205 c0 -203 0 -207 -26 -257 -15
-28 -44 -64 -65 -80 l-38 -29 -233 -3 c-223 -3 -235 -2 -278 19 -28 13 -56 37
-72 62 l-27 41 0 245 0 246 29 38 c16 21 47 49 70 62 40 24 45 25 255 25 214
0 214 0 268 -27z" />
            <path d="M1048 1109 c-25 -14 -23 -56 2 -69 49 -26 92 28 50 62 -25 21 -29 21
-52 7z" />
            <path d="M815 1058 c-40 -6 -55 -14 -83 -45 -38 -44 -71 -108 -72 -140 0 -39
31 -106 67 -144 36 -38 88 -59 144 -59 59 1 150 56 177 106 18 35 24 113 11
152 -12 38 -59 95 -94 115 -31 17 -95 23 -150 15z m130 -109 c31 -27 35 -37
35 -78 0 -36 -6 -54 -27 -80 -70 -82 -203 -30 -203 79 0 42 15 67 53 90 49 30
99 26 142 -11z" />
        </g>
    </symbol>
    <symbol id="4" viewBox="0 0 175.000000 175.000000" preserveAspectRatio="xMidYMid meet">
        <g transform="translate(0.000000,175.000000) scale(0.100000,-0.100000)" fill="currentColor"
            stroke="currentColor">
            <path d="M616 1731 c-10 -11 -30 -22 -44 -26 -41 -10 -131 -53 -192 -93 -132
-86 -284 -286 -335 -440 -9 -29 -23 -56 -31 -59 -21 -8 -21 -435 0 -453 8 -6
27 -42 41 -80 54 -141 166 -292 285 -384 71 -55 253 -146 294 -146 41 -1 146
-24 173 -38 30 -16 98 -15 131 2 15 8 63 19 107 26 99 15 152 32 235 78 131
71 226 155 294 258 21 32 47 70 56 84 24 35 67 137 80 188 6 24 18 46 26 49
11 4 14 38 14 193 0 172 -2 188 -19 204 -11 10 -23 32 -27 50 -9 46 -53 147
-78 181 -12 17 -28 43 -36 58 -22 44 -166 193 -213 221 -88 52 -163 89 -209
103 -27 8 -52 21 -55 29 -4 12 -45 14 -243 14 -220 0 -238 -1 -254 -19z m603
-566 c19 -11 43 -33 55 -48 20 -27 21 -41 21 -226 0 -194 0 -198 -25 -234 -14
-20 -38 -42 -53 -48 -37 -16 -650 -16 -688 -1 -15 6 -37 26 -50 44 -23 31 -24
42 -27 218 -2 112 1 199 7 220 11 38 55 77 100 90 14 4 161 7 326 6 281 -1
302 -2 334 -21z" />
            <path d="M786 984 c-3 -9 -6 -51 -6 -94 0 -70 3 -81 20 -90 17 -9 29 -7 58 9
20 11 56 29 80 40 38 18 43 25 40 48 -2 21 -13 33 -43 48 -23 11 -52 28 -65
38 -31 21 -76 22 -84 1z" />
        </g>
    </symbol>
</svg>