<?xml version="1.0" standalone="no"?>
<!DOCTYPE svg PUBLIC "-//W3C//DTD SVG 20010904//EN"
 "http://www.w3.org/TR/2001/REC-SVG-20010904/DTD/svg10.dtd">
<svg version="1.0" xmlns="http://www.w3.org/2000/svg"
 width="355.000000pt" height="355.000000pt" viewBox="0 0 355.000000 355.000000"
 preserveAspectRatio="xMidYMid meet">
<metadata>
Created by potrace 1.16, written by Peter Selinger 2001-2019
</metadata>
<g transform="translate(0.000000,355.000000) scale(0.100000,-0.100000)"
fill="currentColor" stroke="currentColor">
<path d="M130 3535 c0 -9 -15 -25 -34 -36 -19 -11 -39 -33 -46 -50 -7 -16 -21
-34 -31 -40 -18 -9 -19 -60 -19 -1631 0 -1598 0 -1621 20 -1642 11 -12 44 -47
74 -79 l55 -57 1701 0 1700 0 0 1775 0 1775 -1710 0 c-1530 0 -1710 -2 -1710
-15z m1840 -329 c131 -24 255 -87 361 -184 112 -103 172 -210 203 -362 l11
-55 55 -5 c43 -4 64 -12 97 -39 23 -18 47 -47 52 -64 7 -17 11 -121 11 -247 0
-209 -1 -218 -23 -251 -34 -50 -100 -93 -131 -85 -47 12 -72 86 -29 86 8 0 28
13 44 29 l29 29 0 204 c0 145 -3 207 -12 216 -18 18 -66 15 -77 -5 -5 -10 -11
-106 -13 -213 -3 -175 -6 -200 -26 -244 -12 -27 -22 -56 -22 -65 0 -19 -43
-102 -78 -151 -64 -88 -245 -225 -324 -245 -16 -4 -43 -27 -64 -55 -57 -74
-98 -90 -238 -90 -129 0 -165 11 -220 69 -22 22 -30 43 -34 80 -6 68 11 105
67 144 45 31 48 32 178 35 145 4 171 -3 220 -58 14 -17 32 -30 39 -30 24 0
138 69 198 119 86 73 141 152 171 246 24 77 25 88 25 346 0 296 -8 343 -72
457 -68 120 -228 238 -378 278 -90 24 -284 24 -364 0 -165 -50 -291 -144 -374
-281 -60 -99 -65 -131 -69 -460 -3 -276 -5 -304 -24 -345 -15 -35 -32 -52 -69
-73 -58 -33 -76 -33 -135 -5 -31 15 -54 36 -70 64 -25 42 -25 47 -25 261 0
238 -2 231 63 301 37 39 63 41 79 6 11 -23 9 -33 -15 -75 -27 -48 -27 -51 -27
-233 0 -170 1 -185 21 -210 25 -32 54 -33 73 -3 12 17 16 82 20 312 6 360 17
411 116 559 30 45 177 186 193 186 5 0 21 9 37 20 45 32 171 78 241 88 96 14
224 13 309 -2z m-18 -192 c32 -7 83 -26 113 -42 162 -82 313 -290 233 -321
-30 -12 -55 4 -93 60 -165 244 -486 290 -709 102 -22 -18 -57 -59 -78 -90 -45
-66 -60 -77 -93 -69 -106 27 78 261 264 336 121 48 233 56 363 24z m-1145
-1949 c34 -10 61 -27 82 -50 34 -40 33 -37 25 -59 -9 -25 -51 -19 -70 9 -18
28 -66 41 -119 31 -42 -8 -65 -30 -65 -61 0 -28 64 -69 122 -78 46 -7 115 -52
134 -88 43 -85 -28 -180 -146 -196 -64 -9 -151 34 -180 87 -26 49 34 69 68 23
16 -23 28 -27 78 -30 78 -5 109 11 109 56 0 41 -31 68 -93 82 -48 10 -147 70
-156 94 -27 72 19 154 103 179 59 18 49 18 108 1z m2097 -41 c9 -8 16 -24 16
-35 0 -12 13 -25 38 -36 45 -22 47 -43 7 -62 -16 -8 -33 -19 -37 -25 -4 -6 -8
-50 -8 -98 l0 -88 40 -25 c44 -28 52 -58 20 -75 -27 -15 -81 9 -109 48 -18 26
-21 44 -21 136 0 93 -3 109 -20 126 -11 11 -20 26 -20 33 0 7 9 20 20 30 11 9
20 27 20 40 0 22 16 47 31 47 4 0 15 -7 23 -16z m-1253 -122 c52 -54 66 -98
54 -180 -8 -63 -62 -124 -124 -143 -37 -11 -46 -10 -72 5 -43 26 -63 7 -54
-51 7 -49 -7 -83 -34 -83 -39 0 -41 19 -39 256 l3 229 50 0 c28 0 59 6 70 13
39 24 95 6 146 -46z m384 23 c52 -39 65 -72 65 -167 0 -82 -1 -84 -38 -125
-47 -54 -119 -78 -150 -50 -41 37 -69 10 -57 -57 8 -40 -8 -76 -33 -76 -39 0
-42 16 -42 246 0 189 2 225 16 238 19 20 24 20 52 0 21 -14 24 -14 50 6 35 28
89 22 137 -15z m380 -1 c45 -34 85 -111 85 -161 -1 -79 -58 -160 -130 -182
-132 -39 -252 119 -194 257 46 112 154 151 239 86z m336 20 c18 -22 1 -46 -41
-60 -53 -18 -60 -35 -60 -155 0 -59 -3 -114 -6 -123 -7 -19 -59 -22 -70 -4 -9
15 -8 314 1 328 3 6 25 10 48 11 23 0 51 4 62 9 31 13 51 11 66 -6z m-1693 -6
c8 -8 12 -47 12 -110 0 -114 15 -164 54 -174 41 -10 59 -1 82 40 19 33 21 49
17 116 -7 93 0 126 28 135 43 14 49 -7 49 -174 0 -86 -4 -161 -8 -168 -4 -7
-28 -11 -57 -11 -28 1 -67 -2 -87 -7 -48 -10 -88 6 -119 48 -22 29 -24 43 -27
166 -3 103 -1 136 10 142 18 12 32 11 46 -3z"/>
<path d="M1660 1612 c-29 -24 -21 -64 15 -80 39 -18 209 -15 245 3 37 19 40
57 8 79 -35 25 -238 23 -268 -2z"/>
<path d="M1494 867 c-46 -40 -51 -151 -8 -198 19 -21 73 -25 105 -9 27 15 49
63 49 109 0 37 -29 87 -65 113 -19 14 -54 8 -81 -15z"/>
<path d="M1891 859 c-48 -52 -47 -160 2 -194 67 -47 147 9 147 104 0 37 -29
87 -65 113 -22 16 -57 7 -84 -23z"/>
<path d="M2274 856 c-36 -36 -36 -38 -32 -102 5 -78 27 -104 87 -104 46 0 57
8 81 55 27 54 25 75 -12 131 -44 65 -74 70 -124 20z"/>
</g>
</svg>
