<svg xmlns="http://www.w3.org/2000/svg">
    <symbol id="1" viewBox="0 0 595.000000 595.000000" preserveAspectRatio="xMidYMid meet">
        <g transform="translate(0.000000,595.000000) scale(0.100000,-0.100000)" fill="currentColor"
            stroke="currentColor">
            <path d="M571 5924 c-19 -13 -46 -24 -60 -24 -29 0 -145 -55 -201 -95 -119
-86 -237 -248 -256 -353 -9 -50 -34 -112 -45 -112 -5 0 -9 -987 -9 -2365 0
-2348 0 -2366 20 -2393 11 -15 24 -52 30 -82 10 -56 41 -125 79 -178 11 -17
21 -35 21 -40 0 -5 36 -44 80 -85 84 -80 166 -131 238 -149 24 -6 49 -19 55
-29 11 -18 83 -19 2462 -19 2416 0 2451 0 2467 19 9 11 36 25 59 31 73 20 151
71 234 155 81 80 155 193 155 235 0 11 11 32 25 46 l25 25 0 2459 c0 2393 -1
2460 -19 2469 -10 6 -24 31 -30 57 -7 26 -21 58 -32 72 -10 14 -19 29 -19 35
0 5 -25 39 -55 74 -103 121 -221 200 -332 223 -28 6 -63 20 -76 31 -25 19 -63
19 -2404 18 l-2378 -1 -34 -24z m4776 -115 c79 -12 183 -55 251 -104 97 -70
179 -190 222 -326 l20 -66 0 -2348 0 -2348 -21 -66 c-21 -68 -25 -77 -61 -146
-22 -43 -181 -205 -202 -205 -6 0 -27 -11 -46 -25 -19 -14 -42 -25 -52 -25
-10 0 -44 -9 -75 -20 -57 -20 -83 -20 -2394 -20 -2309 0 -2337 0 -2399 20 -34
11 -69 20 -78 20 -20 0 -91 45 -163 103 -69 56 -122 125 -170 222 l-34 70 0
2425 0 2425 27 50 c16 27 28 55 28 60 0 17 40 66 121 147 90 89 176 136 284
154 98 17 4628 19 4742 3z" />
            <path d="M2168 3999 c-16 -9 -18 -29 -18 -189 0 -210 0 -210 -105 -210 -65 0
-81 -8 -108 -52 -15 -25 -17 -81 -17 -602 l0 -575 34 -35 c31 -34 37 -36 95
-36 105 0 101 7 101 -200 0 -151 3 -181 16 -195 16 -15 48 -13 68 5 4 5 8 87
7 183 -2 205 -1 207 85 207 48 0 59 4 92 34 l37 34 3 602 c2 444 0 606 -9 616
-17 21 -46 17 -63 -8 -14 -20 -16 -93 -16 -595 0 -556 -1 -573 -19 -583 -31
-16 -306 -13 -320 4 -18 22 -17 1086 1 1097 7 5 49 9 94 9 121 0 117 -9 116
257 -1 195 -3 219 -18 230 -21 15 -33 16 -56 2z" />
            <path d="M2966 3997 c-17 -12 -18 -29 -17 -174 2 -188 0 -193 -80 -193 -57 0
-98 -18 -128 -56 -20 -26 -21 -37 -21 -363 0 -354 1 -361 45 -361 44 0 45 8
45 336 0 242 3 314 13 322 19 16 313 18 332 2 13 -11 15 -54 15 -284 0 -198
-3 -275 -12 -284 -7 -7 -45 -12 -98 -12 -130 0 -124 11 -128 -275 l-2 -234 24
-28 24 -28 26 24 26 24 0 203 c0 232 -3 225 86 221 27 -1 64 4 82 12 60 25 62
37 62 380 0 177 -4 321 -10 335 -15 40 -66 66 -130 66 -31 0 -61 5 -68 12 -8
8 -12 61 -12 174 0 157 -1 163 -22 178 -27 19 -29 19 -52 3z" />
            <path d="M3740 3991 c-5 -11 -10 -81 -10 -156 0 -75 -5 -145 -10 -156 -9 -16
-22 -19 -75 -19 -76 0 -111 -14 -131 -51 -22 -43 -21 -1017 1 -1059 21 -41 63
-60 133 -60 32 0 63 -5 70 -12 8 -8 12 -58 12 -159 0 -156 6 -179 49 -179 39
0 45 25 43 174 -1 77 2 147 7 155 5 8 38 18 77 23 60 7 73 12 104 43 l35 35 3
526 c2 396 0 530 -9 541 -7 8 -25 13 -43 11 l-31 -3 -5 -512 c-5 -463 -7 -514
-22 -529 -14 -15 -39 -17 -167 -17 -82 1 -154 4 -160 8 -8 4 -11 153 -11 481
l0 474 23 9 c12 5 45 6 74 4 120 -12 126 -1 126 235 -1 128 -5 187 -13 197
-18 21 -57 19 -70 -4z" />
        </g>
    </symbol>
    <symbol id="2" viewBox="0 0 595.000000 595.000000" preserveAspectRatio="xMidYMid meet">
        <g transform="translate(0.000000,595.000000) scale(0.100000,-0.100000)" fill="currentColor"
            stroke="currentColor">
            <path d="M569 5930 c-15 -11 -49 -24 -75 -29 -50 -10 -126 -45 -200 -93 -96
-62 -244 -260 -244 -327 0 -12 -11 -33 -25 -47 l-25 -25 0 -2441 0 -2440 25
-30 c14 -16 25 -39 25 -51 0 -12 7 -33 15 -47 8 -14 20 -37 27 -52 29 -59 214
-248 243 -248 4 0 19 -9 34 -19 15 -11 49 -25 75 -32 26 -6 53 -20 59 -30 11
-18 83 -19 2460 -19 l2449 0 30 25 c16 14 39 25 50 25 11 0 48 16 83 35 149
84 301 270 326 399 5 28 18 63 29 78 20 27 20 48 20 2409 0 2364 0 2383 -20
2404 -11 12 -24 44 -29 72 -6 28 -23 73 -38 99 -15 27 -37 65 -48 84 -26 45
-140 159 -185 185 -19 11 -55 32 -81 46 -25 15 -71 32 -102 39 -31 6 -67 20
-80 31 -25 19 -64 19 -2399 19 -2347 -1 -2373 -1 -2399 -20z m4776 -124 c44
-7 98 -23 120 -34 22 -12 44 -22 49 -22 27 0 236 -209 236 -236 0 -5 10 -27
22 -49 48 -89 47 -31 47 -2500 0 -2513 2 -2405 -55 -2515 -51 -99 -164 -220
-239 -256 -16 -8 -41 -21 -55 -28 -14 -8 -57 -23 -96 -35 l-70 -21 -2333 0
-2333 0 -71 21 c-123 36 -195 77 -277 160 -83 84 -125 158 -159 279 l-21 75 0
2319 0 2318 26 97 c14 53 32 103 39 111 7 8 20 29 28 45 22 44 114 143 160
173 89 59 145 84 217 97 111 19 4647 21 4765 1z" />
            <path d="M2602 3998 c-17 -22 -40 -84 -52 -145 -24 -112 -41 -132 -145 -164
-22 -6 -61 -22 -87 -36 -52 -25 -64 -57 -32 -84 21 -17 121 -57 162 -65 50
-10 102 -87 102 -151 0 -28 43 -139 61 -158 19 -19 19 -19 46 1 15 12 32 36
37 55 28 106 69 229 79 236 10 8 81 36 190 75 28 11 44 45 33 73 -6 17 -101
65 -129 65 -22 0 -90 34 -103 52 -12 15 -59 156 -69 206 -9 46 -67 71 -93 40z
m64 -298 c14 -28 33 -49 55 -59 46 -22 44 -48 -6 -82 -24 -16 -44 -40 -50 -60
-17 -49 -46 -46 -63 7 -10 31 -21 45 -47 57 -48 23 -47 55 2 82 27 14 39 29
44 51 13 68 34 69 65 4z" />
            <path d="M3662 3688 c-7 -7 -12 -26 -12 -42 0 -61 -29 -97 -100 -126 -96 -38
-89 -52 38 -76 30 -6 62 -60 62 -105 0 -36 21 -66 38 -55 5 3 19 34 31 68 26
73 50 98 95 98 18 0 41 6 51 14 26 19 10 37 -54 60 -59 21 -58 20 -91 105 -27
68 -38 79 -58 59z" />
            <path d="M3153 3640 c-23 -9 -39 -43 -28 -60 4 -6 22 -17 41 -25 19 -8 38 -24
44 -37 5 -13 32 -112 60 -220 28 -108 55 -209 60 -223 14 -37 12 -61 -5 -79
-14 -13 -64 -15 -366 -15 -334 0 -351 1 -369 19 -11 11 -20 33 -20 49 0 60
-50 67 -87 12 -45 -67 -15 -137 68 -161 51 -15 755 -12 798 3 26 9 41 24 59
59 l24 47 -52 208 c-77 305 -87 335 -129 381 -39 44 -65 55 -98 42z" />
            <path d="M2730 3167 c-14 -7 -27 -23 -28 -37 -7 -46 14 -50 249 -50 120 0 225
3 233 6 9 4 21 15 27 26 9 16 6 25 -12 44 -22 24 -23 24 -233 24 -150 0 -218
-4 -236 -13z" />
            <path d="M2098 2665 c-45 -35 -88 -109 -88 -152 0 -10 -11 -63 -24 -118 -74
-303 -86 -357 -86 -382 0 -37 45 -99 82 -112 42 -15 759 -15 790 0 35 16 78
78 78 113 0 17 -13 99 -30 181 -17 83 -39 197 -51 255 -24 125 -49 180 -98
217 l-36 28 -245 3 -245 3 -47 -36z m520 -90 c25 -21 33 -41 57 -142 15 -65
42 -181 61 -258 39 -162 39 -159 18 -179 -13 -14 -60 -16 -359 -16 -199 0
-354 4 -369 10 -32 12 -33 36 -7 128 10 37 33 130 50 207 45 200 47 207 80
243 l30 32 205 0 c203 0 205 0 234 -25z" />
            <path d="M2183 2168 c-34 -16 -40 -48 -13 -70 20 -16 44 -18 219 -18 162 0
200 3 219 16 29 20 28 38 -4 63 -25 20 -39 21 -213 20 -111 0 -195 -5 -208
-11z" />
            <path d="M3295 2689 c-55 -32 -86 -74 -110 -154 -13 -44 -29 -108 -34 -143 -5
-34 -13 -67 -16 -72 -10 -17 -56 -231 -62 -286 -6 -66 24 -119 77 -134 20 -6
189 -10 400 -10 329 0 368 2 397 18 67 37 100 104 82 166 -11 36 -51 209 -81
346 -29 135 -52 190 -98 235 l-41 40 -247 2 c-169 2 -253 -1 -267 -8z m497
-99 c29 -22 41 -51 58 -130 16 -75 56 -248 81 -344 22 -88 19 -113 -18 -127
-13 -5 -177 -9 -368 -9 -307 0 -345 2 -360 17 -10 9 -15 25 -11 37 9 37 47
198 71 301 46 200 53 219 85 248 l30 27 204 0 c187 0 205 -2 228 -20z" />
            <path d="M3343 2163 c-29 -20 -29 -47 -1 -67 18 -13 56 -16 205 -16 182 0 226
7 237 37 3 8 -6 25 -21 39 -26 24 -28 24 -212 23 -152 0 -190 -3 -208 -16z" />
        </g>
    </symbol>
    <symbol id="3" viewBox="0 0 595.000000 595.000000" preserveAspectRatio="xMidYMid meet">
        <g transform="translate(0.000000,595.000000) scale(0.100000,-0.100000)" fill="currentColor"
            stroke="currentColor">
            <path d="M582 5930 c-12 -10 -48 -24 -79 -30 -31 -7 -77 -24 -102 -39 -26 -14
-62 -35 -81 -46 -45 -26 -159 -140 -185 -185 -11 -19 -32 -56 -48 -83 -15 -26
-32 -69 -37 -95 -6 -26 -20 -59 -30 -74 -20 -27 -20 -57 -20 -2414 0 -2369 0
-2388 20 -2409 11 -12 24 -43 30 -71 19 -100 104 -227 212 -320 62 -53 167
-114 196 -114 11 0 34 -11 50 -25 l30 -25 2449 0 c2377 0 2449 1 2460 19 6 10
33 24 59 30 26 7 58 21 72 32 14 10 29 19 35 19 17 0 130 102 182 165 52 62
100 149 110 198 3 15 14 35 25 45 20 16 20 40 20 2455 l0 2439 -25 30 c-14 16
-25 39 -25 51 0 12 -7 33 -15 47 -8 14 -20 36 -27 50 -32 64 -169 220 -194
220 -6 0 -17 7 -24 15 -19 23 -131 75 -183 85 -27 6 -61 19 -77 30 -28 20 -40
20 -2402 20 -2317 -1 -2374 -1 -2396 -20z m4765 -121 c171 -26 337 -148 420
-311 17 -35 41 -97 52 -138 21 -75 21 -80 21 -2390 0 -1398 -4 -2329 -10
-2350 -5 -19 -16 -61 -24 -93 -8 -33 -21 -66 -29 -75 -7 -10 -20 -32 -27 -51
-7 -18 -48 -67 -90 -110 -84 -83 -155 -124 -276 -160 l-70 -21 -2334 0 -2334
0 -70 21 c-39 12 -82 27 -96 35 -14 7 -43 22 -65 33 -40 19 -143 115 -180 167
-43 62 -78 142 -91 209 -10 57 -13 515 -13 2390 -1 2036 1 2330 14 2399 9 44
22 87 29 95 8 9 17 27 21 41 15 49 209 250 241 250 5 0 27 10 49 22 22 12 72
27 110 34 98 17 4638 19 4752 3z" />
            <path d="M3649 4003 c-16 -6 -31 -22 -34 -35 -3 -13 -4 -429 -3 -924 3 -871 4
-903 22 -923 23 -25 39 -26 60 -5 14 14 16 109 16 898 0 673 3 885 12 894 14
14 195 17 216 4 10 -7 13 -183 12 -888 0 -784 1 -882 15 -902 20 -27 39 -28
65 -2 20 20 20 33 20 940 l0 920 -25 16 c-20 13 -56 16 -186 17 -106 1 -172
-2 -190 -10z" />
            <path d="M2516 3359 l-26 -20 0 -599 c0 -531 2 -600 16 -614 8 -9 20 -16 25
-16 13 0 49 38 49 53 1 6 0 252 0 544 -1 362 3 539 10 553 10 18 21 20 108 20
63 0 102 -4 110 -12 9 -9 12 -149 12 -568 0 -487 2 -558 16 -578 8 -12 23 -22
33 -22 46 0 46 -3 46 631 l0 598 -23 23 c-21 22 -31 23 -187 25 -151 2 -166 0
-189 -18z" />
            <path d="M1945 3048 c-11 -6 -23 -16 -27 -22 -4 -6 -8 -207 -8 -446 0 -378 2
-438 16 -458 8 -12 23 -22 34 -22 19 0 82 62 190 188 60 68 93 87 103 60 2 -7
2 -52 -1 -99 -5 -97 5 -129 43 -129 54 0 55 7 55 470 0 352 -2 430 -14 446
-13 17 -29 19 -193 22 -122 1 -184 -2 -198 -10z m263 -105 c2 -15 -12 -38 -46
-75 -28 -29 -66 -71 -85 -93 -30 -34 -39 -38 -54 -29 -16 10 -18 23 -15 105 5
117 8 121 117 117 74 -3 80 -5 83 -25z m40 -180 c5 -10 6 -68 3 -129 l-6 -111
-61 -64 c-34 -35 -78 -83 -99 -106 -36 -41 -74 -56 -76 -30 0 6 0 59 1 117 1
109 8 129 54 174 12 12 50 54 85 94 66 74 84 84 99 55z" />
            <path d="M3068 2749 c-17 -9 -18 -35 -18 -319 0 -296 1 -310 19 -320 27 -14
37 -13 55 6 12 12 16 36 16 100 l0 85 63 68 c34 37 78 86 98 109 21 25 45 42
58 42 21 0 21 -2 21 -189 0 -167 2 -191 18 -211 25 -30 58 -19 71 23 5 18 10
151 11 298 1 256 0 266 -20 292 l-21 27 -177 0 c-102 0 -184 -5 -194 -11z
m240 -102 c2 -11 -15 -38 -45 -70 -27 -29 -54 -60 -59 -69 -5 -10 -21 -19 -34
-20 -25 -3 -25 -1 -28 75 -4 103 1 109 92 105 59 -3 71 -6 74 -21z" />
            <path d="M1967 1981 c-44 -13 -61 -63 -28 -81 13 -7 356 -10 1041 -10 685 0
1028 3 1041 10 25 14 25 56 -1 70 -18 10 -2021 21 -2053 11z" />
        </g>
    </symbol>
    <symbol id="4" viewBox="0 0 595.000000 595.000000" preserveAspectRatio="xMidYMid meet">
        <g transform="translate(0.000000,595.000000) scale(0.100000,-0.100000)" fill="currentColor"
            stroke="currentColor">
            <path d="M555 5930 c-9 -10 -43 -24 -74 -31 -31 -6 -67 -20 -80 -30 -13 -11
-29 -19 -37 -19 -7 0 -26 -11 -42 -25 -17 -14 -33 -25 -37 -25 -15 0 -117
-106 -150 -155 -48 -72 -85 -145 -85 -167 0 -25 -28 -78 -40 -78 -7 0 -10
-859 -10 -2430 0 -1571 3 -2430 10 -2430 12 0 40 -54 40 -78 0 -23 52 -122 89
-171 89 -118 238 -228 334 -245 21 -4 43 -16 50 -26 12 -20 43 -20 2448 -20
2379 0 2436 0 2453 19 10 10 38 24 62 30 121 31 312 192 368 311 9 19 23 46
31 60 8 14 15 35 15 48 0 28 27 82 40 82 7 0 10 854 10 2415 0 2357 0 2415
-19 2434 -10 10 -24 42 -30 71 -6 29 -19 64 -30 79 -10 14 -21 34 -24 45 -10
26 -44 70 -106 134 -80 83 -197 155 -283 173 -28 6 -59 20 -69 30 -19 19 -77
19 -2417 19 -2367 0 -2399 0 -2417 -20z m4821 -124 c85 -18 158 -57 234 -122
116 -101 172 -192 201 -323 18 -82 19 -175 19 -2390 -1 -2213 -2 -2309 -19
-2391 -28 -125 -77 -210 -178 -307 -30 -28 -71 -59 -91 -68 -20 -10 -44 -24
-53 -32 -9 -7 -61 -25 -115 -38 l-99 -25 -2302 0 -2303 0 -97 25 c-53 14 -104
32 -112 39 -9 8 -33 21 -53 29 -49 20 -185 156 -205 205 -8 20 -21 44 -28 52
-7 8 -23 55 -34 103 -21 88 -21 91 -21 2407 0 2315 0 2319 21 2406 11 49 29
99 40 112 10 14 19 31 19 38 0 22 98 132 158 176 77 57 136 86 207 102 87 20
4719 22 4811 2z" />
            <path d="M3751 4005 c-48 -15 -79 -40 -122 -99 -25 -34 -29 -48 -29 -106 0
-56 4 -73 30 -113 35 -55 105 -104 164 -112 83 -13 175 45 223 139 21 41 24
59 20 98 -11 87 -73 163 -157 193 -51 18 -71 18 -129 0z m113 -89 c38 -16 73
-61 82 -104 11 -54 -51 -133 -115 -147 -37 -8 -101 23 -125 60 -25 37 -24 109
0 142 22 29 79 63 107 63 10 0 33 -6 51 -14z" />
            <path d="M2350 3854 c-19 -9 -48 -32 -65 -52 -28 -33 -30 -41 -30 -117 0 -74
3 -85 29 -119 31 -41 94 -75 139 -76 95 -1 188 95 186 192 -1 56 -9 79 -39
118 -48 63 -145 86 -220 54z m126 -92 c65 -52 54 -147 -19 -171 -64 -21 -117
20 -117 90 0 78 81 126 136 81z" />
            <path d="M3423 3501 c-79 -76 -143 -145 -143 -154 0 -22 29 -49 50 -45 10 2
80 61 154 132 142 133 155 155 118 189 -10 10 -23 17 -28 17 -5 -1 -73 -63
-151 -139z" />
            <path d="M2586 3508 c-9 -12 -16 -28 -16 -34 0 -21 164 -174 186 -174 26 0 44
18 44 45 0 25 -158 185 -182 185 -9 0 -24 -10 -32 -22z" />
            <path d="M2968 3346 c-94 -25 -193 -131 -214 -229 -34 -159 73 -328 227 -357
135 -26 239 21 327 147 47 68 52 195 12 272 -42 79 -138 157 -211 171 -64 12
-82 12 -141 -4z m137 -87 c54 -15 130 -94 145 -150 24 -87 -7 -164 -88 -226
-40 -30 -50 -33 -115 -33 -60 0 -77 4 -109 26 -123 86 -139 224 -38 325 64 64
122 81 205 58z" />
            <path d="M3297 2802 c-10 -10 -17 -25 -17 -32 0 -21 172 -180 196 -180 24 0
44 18 44 40 0 20 -172 190 -192 190 -8 0 -22 -8 -31 -18z" />
            <path d="M2550 2621 c-147 -147 -190 -195 -190 -215 0 -24 24 -46 50 -46 22 0
390 383 390 405 0 26 -18 45 -42 45 -11 0 -100 -81 -208 -189z" />
            <path d="M3006 2688 c-24 -35 -23 -218 2 -248 16 -19 22 -21 40 -11 12 6 25
19 30 29 13 25 13 192 0 216 -22 42 -49 47 -72 14z" />
            <path d="M3605 2587 c-43 -20 -93 -80 -101 -122 -8 -47 1 -81 37 -126 71 -90
212 -71 260 35 23 50 23 74 4 123 -31 79 -129 122 -200 90z m95 -107 c23 -23
26 -68 6 -95 -15 -21 -67 -25 -90 -5 -26 21 -20 75 10 99 33 26 49 26 74 1z" />
            <path d="M2063 2424 c-85 -42 -153 -141 -153 -223 1 -83 54 -168 134 -215 36
-21 57 -26 113 -26 62 0 73 3 121 35 167 113 146 334 -40 431 -36 19 -135 17
-175 -2z m174 -90 c65 -42 83 -140 38 -204 -31 -45 -105 -85 -141 -76 -67 17
-134 92 -134 149 0 58 40 118 95 143 36 17 108 11 142 -12z" />
            <path d="M2935 2344 c-42 -22 -73 -52 -106 -103 -24 -37 -29 -56 -29 -108 0
-81 17 -121 75 -178 98 -94 241 -91 334 10 37 40 71 119 71 166 0 71 -86 193
-153 218 -43 16 -157 13 -192 -5z m170 -77 c43 -24 85 -87 85 -126 0 -40 -40
-111 -74 -132 -20 -12 -50 -19 -85 -19 -50 0 -57 3 -96 43 -55 55 -65 101 -35
163 25 50 87 94 135 94 17 0 48 -10 70 -23z" />
        </g>
    </symbol>
    <symbol id="5" viewBox="0 0 595.000000 595.000000" preserveAspectRatio="xMidYMid meet">
        <g transform="translate(0.000000,595.000000) scale(0.100000,-0.100000)" fill="currentColor"
            stroke="currentColor">
            <path d="M600 5929 c-14 -10 -50 -23 -80 -29 -58 -11 -118 -39 -212 -101 -115
-77 -235 -249 -259 -373 -5 -27 -18 -65 -29 -83 -20 -34 -20 -55 -20 -2376 l0
-2342 25 -49 c14 -27 25 -60 25 -74 0 -30 46 -136 77 -178 13 -17 23 -36 23
-41 0 -6 36 -45 80 -86 81 -77 191 -147 230 -147 11 0 32 -11 46 -25 l25 -25
2457 0 c2423 0 2458 0 2474 19 9 11 36 25 60 31 23 7 55 21 69 31 15 10 30 19
34 19 4 0 27 17 52 38 116 94 200 203 223 290 6 23 20 48 30 55 20 12 20 41
20 2482 0 2441 0 2470 -20 2482 -10 7 -24 32 -31 55 -6 24 -20 55 -30 69 -10
15 -19 31 -19 35 0 10 -98 122 -139 159 -69 61 -184 122 -256 136 -27 5 -62
18 -77 29 -27 20 -47 20 -2390 19 -2323 0 -2363 0 -2388 -20z m4885 -160 c39
-20 87 -47 108 -62 49 -33 133 -122 158 -167 41 -72 47 -87 70 -160 l24 -75 0
-2345 0 -2345 -24 -70 c-13 -38 -30 -81 -37 -95 -8 -14 -20 -39 -28 -56 -8
-17 -49 -64 -90 -106 -80 -80 -147 -119 -267 -157 l-66 -21 -2343 0 -2344 0
-70 21 c-109 33 -152 56 -232 124 -67 58 -118 126 -165 220 l-34 70 0 2420 0
2420 34 70 c51 104 124 192 211 256 47 34 147 81 190 90 19 4 1115 6 2435 5
l2400 -1 70 -36z" />
            <path d="M1943 4000 l-23 -21 0 -1022 c0 -867 2 -1026 14 -1043 13 -17 33 -20
248 -26 128 -4 244 -6 258 -6 25 1 987 2 1025 1 11 0 143 1 293 2 224 1 275 4
283 16 5 8 9 51 9 96 0 71 -3 84 -19 93 -11 5 -24 10 -30 10 -19 0 -41 -32
-41 -60 0 -56 -13 -60 -213 -60 -100 0 -189 5 -197 10 -8 5 -20 28 -25 51 -19
75 -74 79 -86 6 -11 -67 -11 -67 -220 -67 -209 0 -219 3 -219 65 0 38 -23 58
-58 48 -22 -5 -25 -12 -37 -71 -4 -21 -14 -34 -28 -37 -12 -3 -103 -4 -202 -3
l-180 3 -16 49 c-26 83 -77 89 -90 11 -10 -61 -23 -65 -195 -65 -124 0 -154 3
-164 15 -17 21 -18 291 -1 308 6 6 30 18 53 27 78 29 75 68 -8 89 -32 8 -47
18 -52 34 -4 12 -6 104 -4 205 l4 182 26 5 c54 11 77 29 77 60 0 27 -4 31 -42
40 -23 6 -47 15 -52 20 -15 15 -16 392 -2 409 6 7 29 16 51 20 55 9 70 37 36
71 -14 14 -36 25 -49 25 -14 0 -29 6 -35 13 -12 14 -20 377 -9 394 4 6 27 16
52 22 58 15 78 46 45 73 -12 10 -36 18 -54 18 -17 0 -47 3 -66 6 -27 4 -40 1
-57 -16z" />
            <path d="M3945 3980 c-4 -6 -93 -10 -236 -10 -216 0 -230 -1 -249 -20 -11 -11
-20 -26 -20 -32 0 -7 32 -43 70 -79 39 -37 70 -75 70 -84 0 -22 -539 -554
-562 -555 -9 0 -41 21 -72 46 -126 102 -156 91 -425 -155 -252 -229 -261 -240
-261 -317 0 -41 6 -57 38 -99 38 -51 119 -105 157 -104 34 0 61 21 198 156
123 122 161 153 186 153 5 0 30 -18 55 -39 25 -21 65 -46 89 -56 82 -31 103
-15 441 324 190 192 296 305 296 318 0 22 -29 53 -50 53 -8 0 -151 -137 -317
-305 -167 -168 -310 -305 -318 -305 -23 0 -67 25 -90 50 -46 50 -118 64 -178
34 -18 -9 -93 -76 -168 -150 -94 -93 -143 -134 -158 -134 -30 0 -91 61 -91 92
0 18 42 64 167 183 91 88 174 167 182 176 44 46 105 89 127 89 13 0 38 -12 56
-27 72 -60 96 -73 142 -73 30 0 56 7 78 23 43 29 628 618 628 632 0 6 -16 26
-35 45 -19 19 -35 42 -35 52 0 16 10 18 126 15 160 -4 156 1 152 -157 -3 -102
-5 -115 -21 -118 -11 -2 -29 6 -42 18 -14 13 -33 20 -47 18 -18 -2 -24 -10
-26 -38 -3 -32 4 -42 82 -117 46 -46 91 -83 99 -83 7 0 21 8 30 18 13 14 16
56 18 274 2 238 1 259 -16 278 -19 21 -60 27 -70 10z" />
        </g>
    </symbol>
    <symbol id="6" viewBox="0 0 595.000000 595.000000" preserveAspectRatio="xMidYMid meet">
        <g transform="translate(0.000000,595.000000) scale(0.100000,-0.100000)" fill="currentColor"
            stroke="currentColor">
            <path d="M490 5931 c-5 -11 -24 -23 -42 -26 -84 -18 -248 -140 -306 -228 -62
-92 -83 -130 -93 -173 -7 -25 -20 -51 -30 -57 -18 -11 -19 -83 -19 -2455 l0
-2444 25 -30 c14 -16 25 -38 25 -48 0 -29 24 -76 91 -176 69 -103 247 -223
362 -244 29 -6 64 -19 79 -30 27 -20 48 -20 2384 -20 2348 0 2356 0 2384 20
16 11 54 25 84 31 57 10 142 49 206 95 49 34 160 145 160 159 0 7 9 20 19 29
27 24 68 111 81 171 6 28 20 62 30 77 20 27 20 57 20 2409 0 2364 0 2383 -20
2404 -11 12 -24 43 -29 71 -21 112 -128 261 -258 360 -42 31 -125 74 -146 74
-10 0 -29 11 -43 25 l-25 25 -2464 0 c-2419 0 -2464 0 -2475 -19z m4895 -110
c117 -40 156 -62 241 -135 87 -76 159 -200 180 -311 18 -95 20 -4661 3 -4764
-20 -114 -70 -204 -170 -304 -49 -49 -105 -94 -126 -103 -21 -9 -58 -25 -83
-37 l-45 -22 -2420 0 -2420 0 -70 35 c-179 88 -292 223 -344 410 -21 75 -21
76 -21 2394 l0 2318 26 97 c15 53 35 107 45 120 11 13 19 29 19 36 0 7 37 51
83 97 105 109 213 166 357 188 25 4 1087 7 2360 6 l2315 -1 70 -24z" />
            <path d="M3101 4014 c-17 -21 -21 -41 -21 -96 0 -64 -2 -69 -26 -78 -15 -6
-227 -10 -532 -10 -572 0 -543 4 -598 -79 -21 -33 -25 -47 -19 -79 8 -50 65
-106 122 -122 24 -6 47 -19 53 -30 13 -25 13 -475 0 -500 -6 -11 -26 -22 -47
-26 -49 -9 -120 -75 -129 -119 -9 -49 20 -102 75 -136 25 -16 53 -29 62 -29
43 0 49 -23 49 -189 0 -161 5 -181 40 -181 9 0 24 8 33 18 14 16 17 43 17 173
0 107 4 159 12 167 7 7 41 12 83 12 75 0 105 15 105 52 0 37 -28 43 -176 40
-99 -3 -149 0 -166 9 -41 21 -49 47 -22 73 13 13 43 16 173 16 140 0 160 2
174 18 42 47 -3 89 -84 78 -38 -5 -57 -3 -75 9 l-24 15 0 250 c0 293 -4 281
99 278 72 -2 101 10 101 42 0 9 -8 24 -18 33 -16 14 -43 17 -174 17 -137 0
-157 2 -171 18 -23 25 -21 48 5 66 20 14 126 16 946 16 617 0 930 -3 943 -10
12 -7 19 -21 19 -40 0 -19 -7 -33 -19 -40 -11 -6 -90 -10 -183 -10 -176 0
-188 -3 -188 -51 0 -40 30 -45 227 -39 197 6 210 11 252 94 l24 49 -23 45
c-14 25 -41 55 -62 68 -35 22 -48 24 -171 24 -163 0 -180 7 -177 79 4 74 1 90
-20 111 -18 18 -35 19 -244 20 l-224 0 -21 -26z m407 -86 c17 -17 15 -64 -4
-82 -23 -23 -279 -23 -312 0 -24 16 -28 44 -12 75 10 17 23 19 163 19 106 0
157 -4 165 -12z" />
            <path d="M3779 3404 c-10 -12 -12 -59 -10 -197 3 -222 3 -221 -92 -219 -56 2
-70 -1 -93 -21 -18 -16 -25 -29 -21 -41 12 -31 56 -38 183 -31 147 8 194 -5
194 -53 0 -45 -30 -53 -196 -51 -155 1 -174 -4 -174 -47 0 -33 28 -44 109 -44
59 0 72 -3 81 -19 6 -12 10 -107 10 -239 0 -260 4 -249 -109 -254 -63 -3 -76
-6 -88 -25 -13 -19 -12 -24 6 -42 19 -19 33 -21 172 -21 84 0 159 -5 170 -10
24 -13 25 -52 1 -73 -17 -16 -97 -17 -950 -17 -919 0 -932 0 -952 20 -25 25
-25 42 -2 63 16 14 44 17 188 17 178 0 194 4 194 45 0 42 -15 45 -210 45
l-186 0 -42 -36 c-80 -68 -76 -152 9 -213 l42 -31 960 0 c950 0 960 0 993 21
45 27 74 77 74 127 0 34 -7 48 -38 81 -20 22 -51 42 -67 46 -81 17 -75 -3 -75
259 0 175 3 236 13 243 6 5 31 15 53 21 61 18 114 79 114 134 0 68 -61 130
-145 148 l-30 6 -5 199 c-3 110 -9 206 -13 213 -11 17 -52 15 -68 -4z" />
            <path d="M2934 3283 c-15 -21 -39 -53 -52 -71 -35 -49 -121 -225 -149 -307
-48 -141 -25 -266 65 -361 88 -93 195 -115 309 -64 104 46 183 163 183 272 0
81 -78 267 -173 413 -112 171 -134 185 -183 118z m72 -121 c34 -21 146 -244
168 -333 21 -86 20 -105 -8 -164 -66 -139 -201 -174 -307 -78 -98 89 -85 237
42 464 71 127 75 131 105 111z" />
        </g>
    </symbol>
</svg>